<svg xmlns="http://www.w3.org/2000/svg" id="Capa_2" data-name="Capa 2" viewBox="0 0 101.96 51.21"><defs><style>      .cls-1 {        fill: #fff;      }    </style></defs><g id="Capa_1-2" data-name="Capa 1"><g><path class="cls-1" d="M47.95,0v4.5c-4.4-.12-8.41,3.4-9.07,7.71-1,6.52,4.67,11.85,11.12,10.52,3.32-.68,6.35-3.49,6.95-6.85h-8.92c-.2-3.54.39-6.92,2.4-9.88,8.28-12.2,27.67-4.33,24.86,10.41-1.2,6.29-6.97,11.08-13.4,11.02v-4.5c3.44.03,6.76-2.07,8.23-5.15,3.37-7.06-2.83-14.8-10.44-13.07-3.31.75-5.91,3.34-6.85,6.58l.09.18h8.8c.22,3.66-.28,6.94-2.36,10-5.79,8.48-18.68,7.8-23.49-1.28S37.69.08,47.95,0Z"></path><path class="cls-1" d="M68.43,38.39h-2.38c-.47-2.53-3.67-2.91-5.18-.97-1.22,1.57-1.33,5.43.05,6.91,1.6,1.73,4.48,1.26,5.29-.99.08-.22.27-.64.06-.79h-2.55l-.13-.13v-2h4.93v6.96h-1.61l-.3-1.61c-1.1,1.65-3.07,2.15-4.96,1.73-5.05-1.14-5.44-9.63-1.66-12.41,3.03-2.23,8.15-.76,8.44,3.3Z"></path><path class="cls-1" d="M10.81,38.3h-2.46c-.53-2.63-4.19-3.06-5.31-.59-.89,1.95-.76,6.68,2.04,6.96,1.74.18,2.93-.66,3.27-2.38h2.46c-.49,3.74-4.14,5.52-7.56,4.12-3.6-1.48-4-7.05-2.23-10.03,2.39-4.02,9.46-3.04,9.79,1.93Z"></path><path class="cls-1" d="M22.54,45.35v5.35h-2.29v-13.25h2.21v1.1c1.27-1.84,4.05-1.68,5.4,0,1.55,1.92,1.51,6.27-.78,7.63-1.56.93-3.39.53-4.53-.83ZM25.82,44.22c1.18-1.17.92-4.79-1.04-5.06-2.36-.32-2.77,2.81-2.06,4.43.52,1.19,2.21,1.51,3.09.63Z"></path><path class="cls-1" d="M95.62,39.15c.2.05.14-.04.19-.11,2.09-2.69,5.4-1.26,5.98,1.79.48,2.5-.02,6.57-3.25,6.81-1.34.1-1.9-.36-2.65-1.33-.05-.07,0-.15-.19-.11v5.01h-2.21v-13.42l2.12.08v1.27ZM98.91,40.12c-.99-.92-2.55-.39-3.01.8-.62,1.59-.46,4.83,1.9,4.7s2.38-4.32,1.12-5.5Z"></path><path class="cls-1" d="M81.48,38.09c3.22,1.77,2.9,8.44-.93,9.4-4.39,1.11-6.69-2.83-5.6-6.7.81-2.89,3.89-4.15,6.53-2.7ZM78.86,39.6c-1.96.27-2.13,3.29-1.55,4.73.63,1.57,2.81,1.78,3.6.28.87-1.67.54-5.37-2.05-5.02Z"></path><path class="cls-1" d="M17.02,46.46l-.09-.76-1.25.74c-2.2.63-4.76.18-4.53-2.65.25-2.99,3.24-2.18,5.04-2.95,1.05-.45.72-1.62-.33-1.76s-2.06.06-2.24,1.27h-2.12c-.1-2.8,2.47-3.24,4.72-3.06,1.22.1,2.36.69,2.76,1.91.09.28.25,1.09.25,1.36v5.78l-.13.13h-2.08ZM16.85,42.13c-.99.5-3.43.35-3.39,1.9.03,1.34,1.81,1.14,2.58.56.22-.17.81-.89.81-1.15v-1.32Z"></path><path class="cls-1" d="M35.54,35.08v2.38h4.93v1.57l-.13.13h-4.8v4.37s.13.38.15.44c.41.91,1.75.97,2.3.14.05-.07.27-.54.27-.58v-2.93h2.21v2.93c0,4.19-7.31,4.18-7.31.08v-8.54h2.38Z"></path><path class="cls-1" d="M45.38,37.23c3.79-.29,5.78,3.07,4.71,6.5-1.28,4.11-7.75,3.95-8.75-.3-.72-3.06.71-5.94,4.04-6.19ZM45.21,39.26c-1.52.26-1.71,2.17-1.58,3.41.28,2.7,3.76,2.83,4.3.33.44-2.03-.27-4.15-2.72-3.74Z"></path><path class="cls-1" d="M86.62,37.8v6.16c0,.09.12.64.16.77.38,1.21,2.1,1.13,2.76.2.22-.3.47-1.12.47-1.48v-5.65h2.08l.13.13v9.47h-2c-.27-.11-.03-1.28-.17-1.27-.29.19-.45.58-.72.81-1.3,1.13-3.73.97-4.54-.65-.2-.41-.48-1.46-.48-1.9v-6.58h2.29Z"></path><path class="cls-1" d="M74.8,37.54v2.46c-.89-.06-1.98.02-2.48.87-.09.16-.32.8-.32.95v5.56h-2.29v-9.6h2.12v1.61c.38-.29.54-.85.89-1.19.52-.52,1.36-.71,2.09-.68Z"></path><rect class="cls-1" x="51.18" y="34.14" width="2.29" height="12.32"></rect><rect class="cls-1" x="29.76" y="37.46" width="2.38" height="9"></rect><rect class="cls-1" x="29.76" y="34.14" width="2.38" height="2.21"></rect></g></g></svg>