<svg xmlns="http://www.w3.org/2000/svg" id="Capa_2" data-name="Capa 2" viewBox="0 0 268.76 182.07"><defs><style>      .cls-1 {        fill: none;      }      .cls-2, .cls-3 {        fill: #e6bb31;      }      .cls-2, .cls-4, .cls-5 {        fill-rule: evenodd;      }      .cls-6 {        fill: #3b2a62;      }      .cls-7, .cls-5 {        fill: #d87632;      }      .cls-8, .cls-4 {        fill: #dd9237;      }    </style></defs><g id="Capa_12" data-name="Capa 12"><g><g><polygon class="cls-2" points=".01 75.07 .01 136.55 80.58 182.07 161.14 136.55 130.27 119.11 80.58 147.19 30.88 119.11 30.88 75.07 15.45 83.79 .01 75.07"></polygon><path class="cls-2" d="M18.59,34.94c4.93,2.78,9.85,5.57,14.78,8.35,5.39,3.04,10.77,6.09,16.16,9.13,10.35-5.85,20.7-11.69,31.05-17.54l49.69,28.08,30.87-17.44L80.58,0c-20.66,11.65-41.33,23.3-61.99,34.94Z"></path></g><g><polyline class="cls-7" points=".01 136.55 30.88 119.11 80.58 147.19 80.58 182.07 .01 136.55"></polyline><polyline class="cls-5" points="80.58 34.88 80.58 0 161.14 45.52 130.27 62.96 80.58 34.88"></polyline></g><g><polygon class="cls-4" points="145.71 127.83 161.14 136.55 145.71 145.27 137.99 140.91 145.71 136.55 137.99 132.19 145.71 127.83"></polygon><polygon class="cls-8" points="80.58 182.07 96.01 173.35 80.58 164.63 72.86 168.99 80.58 173.35 72.86 177.71 80.58 182.07"></polygon><polygon class="cls-4" points="80.58 147.19 96.01 155.91 80.58 164.63 72.86 160.27 80.58 155.91 72.86 151.55 80.58 147.19"></polygon><polygon class="cls-4" points=".01 136.55 .01 119.11 15.45 127.83 15.45 136.55 7.73 132.19 7.73 140.91 .01 136.55"></polygon><polygon class="cls-4" points="15.45 110.39 30.88 119.11 30.88 127.83 23.16 123.47 23.16 132.19 15.45 127.83 15.45 110.39"></polygon><polygon class="cls-8" points="80.58 34.88 96.01 26.16 80.58 17.44 72.86 21.8 80.58 26.16 72.86 30.52 80.58 34.88"></polygon><polygon class="cls-8" points="80.58 0 96.01 8.72 80.58 17.44 72.86 13.08 80.58 8.72 72.85 4.36 80.58 0"></polygon><polygon class="cls-4" points="137.99 41.16 145.71 36.8 161.14 45.52 145.71 54.24 137.99 49.88 145.71 45.52 137.99 41.16"></polygon></g><line class="cls-1" x1="11.07" y1="46.54" x2="9.61" y2="47.38"></line><line class="cls-1" x1="8.18" y1="48.21" x2="6.76" y2="49.03"></line><line class="cls-1" x1="5.32" y1="49.86" x2="3.9" y2="50.68"></line><line class="cls-1" x1="19.17" y1="46.54" x2="20.63" y2="47.38"></line><line class="cls-1" x1="22.06" y1="48.21" x2="23.48" y2="49.03"></line><line class="cls-1" x1="24.92" y1="49.86" x2="26.33" y2="50.67"></line><g><path class="cls-6" d="M69.74,73.46l-.73,4.21c-2.18-.41-3.8-.62-4.89-.62-1.36,0-2.44.36-3.23,1.09-.79.73-1.19,1.68-1.19,2.86s.4,2.19,1.19,2.92c.79.73,1.83,1.1,3.11,1.1.92,0,2.59-.2,5-.62l.71,4.12c-2.18.58-4.21.88-6.08.88-2.71,0-4.89-.77-6.55-2.31-1.66-1.54-2.49-3.56-2.49-6.07s.83-4.53,2.49-6.07c1.66-1.54,3.84-2.31,6.53-2.31,1.85,0,3.89.27,6.13.8Z"></path><path class="cls-6" d="M76.22,79.78h6.22v4.21h-6.22v5.09h-4.74v-16.09h12.07v4.07h-7.33v2.72Z"></path><path class="cls-6" d="M93.98,77.13v11.95h-4.72v-11.95h-5.07v-4.14h14.87v4.14h-5.07Z"></path><path class="cls-6" d="M111.92,72.8c2.74,0,4.91.73,6.51,2.19,1.6,1.46,2.4,3.47,2.4,6.02s-.78,4.57-2.35,6.05c-1.57,1.48-3.64,2.21-6.23,2.21-1.77,0-3.95-.06-6.53-.19v-16.09c3.23-.13,5.29-.19,6.2-.19ZM112.39,85.11c1.05,0,1.91-.37,2.57-1.11.67-.74,1-1.74,1-2.98s-.34-2.21-1.02-2.95c-.68-.73-1.58-1.1-2.69-1.1-.41,0-1,.02-1.79.05v8.07c.2,0,.53,0,.96.01.44,0,.76.01.96.01Z"></path><path class="cls-6" d="M127.4,79.1h6.55v3.83h-6.55v2.15h7.66v4h-12.4v-16.09h12.4v4h-7.66v2.11Z"></path><path class="cls-6" d="M154.37,89.08h-12.14v-16.09h4.74v11.97h7.4v4.12Z"></path><path class="cls-6" d="M160.97,86.88l-.85,2.2h-5l6.93-16.19h4.39l6.93,16.19h-5l-.85-2.2h-6.55ZM164.26,78.22l-1.83,4.76h3.62l-1.79-4.76Z"></path><path class="cls-6" d="M186.57,84.89h-2.09v4.19h-4.74v-16.09c3.37-.11,5.63-.17,6.79-.17,2.21,0,3.92.51,5.14,1.53,1.22,1.02,1.83,2.47,1.83,4.37,0,2.16-.81,3.8-2.44,4.92l3.52,5.44h-5.52l-2.49-4.19ZM184.48,81.04h1.83c.75,0,1.34-.2,1.77-.59.43-.39.65-.92.65-1.59,0-1.36-.83-2.04-2.49-2.04h-1.76v4.21Z"></path><path class="cls-6" d="M200.41,79.1h6.55v3.83h-6.55v2.15h7.66v4h-12.4v-16.09h12.4v4h-7.66v2.11Z"></path><path class="cls-6" d="M225.68,79.45v8.33c-3.07,1.1-5.53,1.66-7.38,1.66-2.66,0-4.8-.77-6.42-2.32-1.62-1.55-2.43-3.58-2.43-6.11s.8-4.53,2.4-6.07c1.6-1.54,3.7-2.31,6.32-2.31,2.04,0,4.19.28,6.46.83l-.73,4.05c-2.41-.36-4.15-.54-5.21-.54-1.27,0-2.29.37-3.07,1.11-.78.74-1.16,1.72-1.16,2.93s.36,2.22,1.09,2.96c.73.74,1.69,1.11,2.9,1.11,1.13,0,2.3-.15,3.52-.45v-1.58h-4.63v-3.6h8.34Z"></path><path class="cls-6" d="M232.59,72.99v16.09h-4.72v-16.09h4.72Z"></path><path class="cls-6" d="M236.59,74.95c1.59-1.55,3.67-2.32,6.24-2.32s4.64.77,6.22,2.32c1.58,1.55,2.37,3.57,2.37,6.08s-.79,4.54-2.37,6.08c-1.58,1.55-3.66,2.32-6.22,2.32s-4.65-.77-6.24-2.32c-1.59-1.55-2.38-3.57-2.38-6.08s.79-4.54,2.38-6.08ZM242.83,85.13c1.13,0,2.04-.37,2.74-1.12.7-.75,1.05-1.74,1.05-2.97s-.35-2.22-1.05-2.97c-.7-.75-1.61-1.12-2.74-1.12s-2.02.37-2.71,1.12c-.7.75-1.04,1.74-1.04,2.97s.35,2.22,1.04,2.97c.7.75,1.6,1.12,2.71,1.12ZM248.28,68.02l-3.29,3.62h-4.32l2.25-3.62h5.36Z"></path><path class="cls-6" d="M268.76,72.99v16.09h-4.21l-6.53-8.12v8.12h-4.74v-16.09h4.35l6.39,8.14v-8.14h4.75Z"></path><path class="cls-6" d="M61.02,93.43c2.66,0,4.76.71,6.32,2.12,1.55,1.42,2.33,3.37,2.33,5.85s-.76,4.44-2.28,5.87-3.53,2.15-6.04,2.15c-1.72,0-3.83-.06-6.34-.18v-15.62c3.13-.12,5.14-.18,6.02-.18ZM61.47,105.38c1.02,0,1.85-.36,2.5-1.08.65-.72.97-1.68.97-2.89s-.33-2.15-.99-2.86c-.66-.71-1.53-1.07-2.61-1.07-.4,0-.97.02-1.73.05v7.83c.2,0,.51,0,.93.01s.74.01.93.01Z"></path><path class="cls-6" d="M76.04,99.54h6.36v3.72h-6.36v2.09h7.43v3.88h-12.04v-15.62h12.04v3.88h-7.43v2.04Z"></path><path class="cls-6" d="M102.21,109.24h-11.79v-15.62h4.61v11.62h7.18v4Z"></path><path class="cls-6" d="M108.62,107.1l-.82,2.14h-4.86l6.73-15.71h4.26l6.72,15.71h-4.86l-.82-2.14h-6.36ZM111.81,98.69l-1.78,4.62h3.51l-1.73-4.62Z"></path><path class="cls-6" d="M131.46,107.1l-.82,2.14h-4.86l6.73-15.71h4.26l6.72,15.71h-4.86l-.82-2.14h-6.36ZM134.65,98.69l-1.78,4.62h3.51l-1.73-4.62Z"></path><path class="cls-6" d="M151.36,105.17h-2.03v4.07h-4.61v-15.62c3.27-.11,5.46-.16,6.59-.16,2.14,0,3.81.49,4.99,1.48,1.19.99,1.78,2.4,1.78,4.24,0,2.1-.79,3.69-2.37,4.78l3.42,5.28h-5.36l-2.42-4.07ZM149.33,101.43h1.78c.73,0,1.3-.19,1.72-.57.42-.38.63-.9.63-1.54,0-1.32-.81-1.98-2.42-1.98h-1.71v4.09Z"></path><path class="cls-6" d="M164.81,107.1l-.82,2.14h-4.86l6.73-15.71h4.26l6.72,15.71h-4.86l-.82-2.14h-6.36ZM168,98.69l-1.78,4.62h3.51l-1.73-4.62Z"></path><path class="cls-6" d="M192.05,93.62v8.29c0,2.43-.65,4.32-1.96,5.66-1.31,1.34-3.13,2.01-5.47,2.01s-4.17-.67-5.48-2.01c-1.31-1.34-1.97-3.23-1.97-5.66v-8.29h4.65v8.29c0,1.06.25,1.88.75,2.47.5.59,1.19.88,2.05.88s1.55-.29,2.04-.88c.49-.59.74-1.41.74-2.47v-8.29h4.65Z"></path><path class="cls-6" d="M208.4,94.08l-.71,4.09c-2.11-.4-3.69-.6-4.74-.6-1.32,0-2.37.35-3.13,1.06-.77.7-1.15,1.63-1.15,2.78s.38,2.12,1.15,2.84c.77.71,1.77,1.07,3.02,1.07.9,0,2.51-.2,4.86-.6l.68,4c-2.11.57-4.08.85-5.91.85-2.63,0-4.75-.75-6.36-2.24s-2.42-3.46-2.42-5.89.8-4.4,2.42-5.89,3.72-2.24,6.34-2.24c1.79,0,3.78.26,5.95.78Z"></path><path class="cls-6" d="M214.71,107.1l-.82,2.14h-4.86l6.73-15.71h4.26l6.72,15.71h-4.86l-.82-2.14h-6.36ZM217.91,98.69l-1.78,4.62h3.51l-1.73-4.62Z"></path><path class="cls-6" d="M243.01,93.62v15.62h-4.08l-6.34-7.88v7.88h-4.61v-15.62h4.22l6.2,7.9v-7.9h4.6Z"></path><path class="cls-6" d="M249.8,93.62v15.62h-4.58v-15.62h4.58ZM252.81,88.8l-3.19,3.51h-4.2l2.19-3.51h5.2Z"></path><path class="cls-6" d="M256.64,107.1l-.82,2.14h-4.86l6.73-15.71h4.26l6.72,15.71h-4.86l-.82-2.14h-6.36ZM259.83,98.69l-1.78,4.62h3.51l-1.73-4.62Z"></path></g><line class="cls-7" x1="16.2" y1="52.65" x2="16.12" y2="52.65"></line><path class="cls-7" d="M28.93,59.53v12.75l1.29-.74v-12.01s5.1-.24,8.36-4.31l-1.14-.65s-2.31,3.21-7.23,3.66v-1.3s3.47-.06,6.07-3.03l-1.14-.66s-1.92,2.2-4.93,2.4v-1.3s2.1-.11,3.78-1.77l-1.17-.68s-1,.96-2.61,1.15v-2.65l-.64-.37-.64.37v2.65s-1.44-.1-2.61-1.15l-1.17.68s1.39,1.52,3.78,1.77v1.3s-2.64,0-4.93-2.4l-1.14.66s2.2,2.78,6.07,3.03v1.3s-3.92.04-7.23-3.66l-1.14.66s3.31,4.06,8.37,4.3"></path><g><ellipse class="cls-3" cx="7.89" cy="59.44" rx="4.04" ry="4.04"></ellipse><polygon class="cls-8" points=".01 71.53 8.1 66.87 15.11 70.92 22.15 66.86 30.22 71.53 15.11 80.24 .01 71.53"></polygon><g><path class="cls-7" d="M16.19,52.66s8.54-.4,14.02-7.23l-1.9-1.09s-3.87,5.4-12.12,6.15v-2.17s5.82-.1,10.18-5.09l-1.92-1.11s-3.23,3.7-8.27,4.02v-2.17s3.51-.18,6.34-2.97l-1.97-1.14s-1.67,1.61-4.37,1.92v-4.45l-1.08-.62-1.08.62v4.45s-2.42-.17-4.37-1.92l-1.97,1.14s2.32,2.56,6.34,2.97v2.17s-4.42.02-8.27-4.02l-1.92,1.11s3.69,4.67,10.19,5.09v2.17s-6.57.06-12.12-6.15l-1.91,1.11s5.55,6.82,14.03,7.22"></path><polyline class="cls-7" points="14.03 52.66 14.03 79.67 15.11 80.29 16.19 79.67 16.19 52.66"></polyline></g><path class="cls-7" d="M28.93,59.51v12.77l1.29-.74v-12.02s5.1-.24,8.36-4.31l-1.14-.65s-2.31,3.22-7.23,3.67v-1.3s3.47-.06,6.07-3.04l-1.14-.66s-1.92,2.21-4.93,2.4v-1.3s2.1-.11,3.78-1.77l-1.17-.68s-1,.96-2.61,1.15v-2.65l-.64-.37-.64.37v2.65s-1.44-.1-2.61-1.15l-1.17.68s1.39,1.53,3.78,1.77v1.3s-2.64,0-4.93-2.4l-1.14.66s2.2,2.79,6.07,3.04v1.3s-3.92.04-7.23-3.67l-1.14.66s3.31,4.07,8.37,4.3"></path></g></g></g></svg>