<svg xmlns="http://www.w3.org/2000/svg" id="Capa_2" data-name="Capa 2" viewBox="0 0 339.99 236.79"><defs><style>      .cls-1 {        fill: #ffbe08;      }    </style></defs><g id="Capa_1-2" data-name="Capa 1"><path class="cls-1" d="M140.48,4.47l16.98,96.66c8.58-2.61,14.66-2.79,23.62-.29l13.81-96.67c-17.97-5.02-37.3-6.18-54.41.3Z"></path><path class="cls-1" d="M75.65,31.34l55.34,81.04c6.74-5.92,12.2-8.59,21.39-10.01L125.09,8.62c-18.44,2.84-36.53,9.76-49.44,22.72Z"></path><path class="cls-1" d="M27.5,78.34l80.16,56.61c4.25-7.9,8.44-12.31,16.55-16.85l-58.32-78.32c-16.29,9.1-30.83,21.9-38.39,38.55Z"></path><path class="cls-1" d="M.03,146.5l96.92,15.39c.33-8.96,2.13-14.77,7.41-22.43L17.44,94.96C6.85,110.32-.54,128.22.03,146.5Z"></path><path class="cls-1" d="M264.34,29.18l-55.34,81.04c-6.74-5.92-12.2-8.59-21.39-10.01L214.9,6.46c18.44,2.84,36.53,9.76,49.44,22.72Z"></path><path class="cls-1" d="M312.5,76.18l-80.16,56.61c-4.25-7.9-8.44-12.31-16.55-16.85l58.32-78.32c16.29,9.1,30.83,21.9,38.39,38.55Z"></path><path class="cls-1" d="M339.96,144.34l-96.92,15.39c-.33-8.96-2.13-14.77-7.41-22.43l86.92-44.51c10.59,15.36,17.98,33.26,17.41,51.55Z"></path><path class="cls-1" d="M203.2,207.3c-1.42-1.33-.61-.89-3.08-3.88-11.59-14.06-11.79-15.45-17.05-16.5-5.25-1.05-14.09,5.3-14.09,5.3-1.6.33-8.22-5.48-13.83-4.9-1.74.18-4.2-1.75-11.91,8.41-7.71,10.16-15.06,13.66-15.06,13.66l3.5,2.8c3.5,2.8,16.11,18.56,19.26,20.67,3.15,2.1,10.51,3.5,17.03,3.85,6.52.35,12.74-.35,20.1-4.55,6.43-3.68,17.6-17.74,19.85-21.5.23-.38-4.18-2.85-4.73-3.36ZM183.37,217.59c-5.6,1.25-10.34,1.45-15.3,1.35-4.97-.1-10.57-.52-12.97-1.14-2.4-.62-12-5.3-14.67-6.13l-2.67-.83s5.6-1.04,11.47-4.05,7.74-2.44,9.07-2.49c4.27-.17,9.31,1.55,10.53,1.45,0,0,6.73-1.88,10.73-1.57s4.16.72,12.98,4.89c1.88.89,1.26.76,2.34,1.15.42.15,3.77.88,3.6,1-1.71,1.11-10.21,5.28-15.11,6.37Z"></path></g></svg>