<svg xmlns="http://www.w3.org/2000/svg" id="Capa_2" data-name="Capa 2" viewBox="0 0 667 271.56"><defs><style>      .cls-1 {        fill: #b17f4a;      }      .cls-2 {        fill: #fff;      }    </style></defs><g id="Capa_1-2" data-name="Capa 1"><g><path class="cls-2" d="M127.45,55.28h27.07v120.69h-27.07V55.28Z"></path><path class="cls-2" d="M295.01.43h27.07v175.54h-27.07V.43Z"></path><path class="cls-2" d="M665.81.54v178.43h0l-100.72-107.58v104.8h-27.07V.54h0l100.62,108.16V.54h27.17Z"></path><path class="cls-1" d="M429.81.53c-48.48,0-87.78,39.3-87.78,87.78,0,30.5,15.55,57.36,39.16,73.09l1.48-58.54c.04-1.46-.68-2.8-1.85-3.42-7.97-4.21-13.69-13.56-13.73-26.73-.04-15.14,9.15-36.71,20.57-36.75,11.42-.04,20.74,21.15,20.79,36.59.04,13.26-5.69,22.71-13.72,26.91-1.17.61-1.9,1.96-1.86,3.42l1.67,65.82c9.48,4.17,19.84,6.7,30.72,7.25.3-9.69.91-20.93,2.07-31.66,1.96-18.18-3.96-23.73-7.42-25.41-1.89-.92-3.16-2.77-3.17-4.87-.38-52.62,14.18-71.67,20.29-77.58,1.01-.98,2.68-.16,2.54,1.23-3.85,38.97-.9,101.02-.9,101.02l1.84,36.74c7.43-.9,14.58-2.74,21.32-5.38l2.78-61.58c0-2.25-1.07-4.36-2.89-5.69l-3.13-2.3c-6.07-4.45-6.09-15-5.17-22.47l3.79-43.89h2.66l.58,46.48h1.77l1.15-46.48h3.71l.58,46.48h1.77l1.16-46.48h3.7l.58,46.48h1.77l1.15-46.48h2.67l3.8,43.89c.92,7.47.9,18.02-5.17,22.47l-3.14,2.3c-1.82,1.33-2.89,3.44-2.89,5.69l2.48,54.77c25.22-15.42,42.05-43.22,42.05-74.94,0-48.48-39.3-87.78-87.78-87.78Z"></path><circle class="cls-2" cx="140.98" cy="19.91" r="19.48"></circle><path class="cls-2" d="M272.09,144.34c-2.86,6.4-6.74,12.05-11.63,16.94-4.89,4.89-10.62,8.72-17.19,11.5-6.58,2.78-13.57,4.17-20.98,4.17-12.64,0-23.81-3.29-33.5-9.86-9.69-6.57-16.56-15.17-20.6-25.79l22.25-13.65s4.02,10.75,11.73,17.06c6.51,5.33,12.03,6.95,20.13,6.95,3.87,0,7.58-.76,11.12-2.28,3.54-1.52,6.61-3.54,9.23-6.07,2.61-2.53,4.68-5.48,6.2-8.85,1.52-3.37,2.27-6.99,2.27-10.87,0-6.57-1.94-11.76-5.81-15.55-3.88-3.79-8.68-7.08-14.41-9.86-5.73-2.78-11.97-5.35-18.71-7.71-6.74-2.36-12.94-5.39-18.58-9.1-5.64-3.71-10.32-8.42-14.03-14.16-3.71-5.73-5.48-13.31-5.31-22.75,0-6.06,1.05-11.8,3.16-17.19,2.11-5.39,5.14-10.11,9.1-14.16s8.68-7.25,14.16-9.61c5.48-2.36,11.58-3.54,18.33-3.54,9.94,0,18.83,2.49,26.67,7.46,7.84,4.97,14.12,10.91,18,18.66l-20.84,14.82s-5.91-7.52-9.29-10.48c-1.89-1.65-4.17-2.87-6.7-3.79-2.53-.93-5.14-1.39-7.83-1.39-5.22,0-9.77,1.9-13.65,5.69s-5.81,8.3-5.81,13.53,1.89,9.61,5.68,12.64c3.79,3.03,8.55,5.73,14.28,8.09,5.73,2.36,11.88,4.76,18.46,7.21,6.57,2.44,12.72,5.73,18.46,9.86,5.73,4.13,10.49,9.44,14.28,15.93,3.79,6.49,5.68,14.95,5.68,25.4,0,7.42-1.43,14.32-4.3,20.73Z"></path><polygon class="cls-2" points="109.12 131.27 87.08 175.78 .01 .24 31.02 .24 87.17 112.68 109.12 68.51 109.12 131.27"></polygon><rect class="cls-2" x=".01" y="205.81" width="665.8" height="2"></rect><rect class="cls-2" x=".01" y="269.56" width="665.8" height="2"></rect><g><path class="cls-2" d="M2.91,219.88v17.07h4.19v2.53H2.91v15.86h6.41v2.53H0v-40.57h9.32v2.58H2.91Z"></path><path class="cls-2" d="M45.06,217.3l-4.77,40.57h-2.91l-4.77-40.57h2.91l3.32,28.21,3.32-28.21h2.91Z"></path><path class="cls-2" d="M71.26,219.88v17.07h4.19v2.53h-4.19v15.86h6.41v2.53h-9.32v-40.57h9.32v2.58h-6.41Z"></path><path class="cls-2" d="M108.99,217.3h2.91v40.57h-2.91l-5.12-25.68v25.68h-2.91v-40.57h2.91l5.12,25.68v-25.68Z"></path><path class="cls-2" d="M146.14,217.34v2.53h-4.02v37.99h-2.91v-37.99h-4.02v-2.53h10.94Z"></path><path class="cls-2" d="M169.43,221.65c0-.71-.06-1.37.23-1.87.23-.56.52-1.01,1.05-1.42.52-.36,1.05-.66,1.74-.86.76-.25,1.52-.35,2.44-.35,1.86,0,2.74.4,3.79,1.21.99.81,1.69,1.88,1.69,3.29v31.92c0,1.42-.7,2.48-1.69,3.24-1.05.81-1.92,1.21-3.79,1.21-.93,0-1.69-.1-2.44-.3-.7-.2-1.22-.51-1.74-.91-.53-.41-.82-.86-1.05-1.37-.29-.56-.23-1.17-.23-1.88v-31.92ZM177.41,221.65c0-.66-.17-1.21-.64-1.62-.47-.46-1.05-.71-1.92-.71s-1.4.25-1.8.71c-.47.41-.58.96-.58,1.62v31.86c0,.66.12,1.22.58,1.67.41.46.93.66,1.8.66s1.46-.2,1.92-.66.64-1.01.64-1.67v-31.86Z"></path><path class="cls-2" d="M216.36,230.11h-2.97v-8.06c0-.71-.29-1.27-.7-1.67-.47-.46-1.34-.71-2.21-.71s-1.75.25-2.15.71c-.47.4-.64.96-.64,1.67,0,2.53.18,4.81.64,6.74.41,1.92.93,3.7,1.57,5.27.64,1.57,1.34,3.09,2.09,4.46.29.76.58,1.42.93,2.13.52,1.12.99,2.33,1.34,3.65.41,1.32.76,2.73.99,4.31.23,1.52.18,3.29.18,5.27,0,.71-.12,1.32-.41,1.88-.29.55-.7,1.01-1.16,1.42-.53.36-1.17.66-1.86.91-.76.2-1.63.3-2.56.3-1.86,0-3.14-.4-4.19-1.21-.99-.81-1.57-1.88-1.57-3.29v-8.11h3.03v8.11c0,.66.23,1.21.64,1.67.47.46,1.34.66,2.21.66s1.74-.2,2.15-.66c.47-.46.64-1.01.64-1.67,0-2.59-.17-4.86-.64-6.79-.41-1.92-.93-3.7-1.57-5.27-.53-1.17-.93-2.23-1.46-3.29,0,0-1.05-2.18-1.58-3.29-.52-1.11-.99-2.33-1.34-3.6-.41-1.32-.76-2.79-.99-4.31-.23-1.57-.17-3.34-.17-5.27,0-.71.12-1.37.41-1.92.29-.51.7-1.01,1.17-1.37.52-.41,1.16-.71,1.86-.91.76-.2,1.69-.35,2.56-.35,1.86,0,3.14.41,4.19,1.21.99.81,1.57,1.92,1.57,3.34v8.06Z"></path><path class="cls-2" d="M276.09,240.9v.3c0,1.21.12,4.91-.58,8.46-.23.96-.47,1.83-.76,2.63.76,2.28,1.46,4.71,1.46,5.57h-3.03c0-.2-.12-.76-.47-1.97-1.05,1.06-2.33,1.72-3.78,1.87-.23.05-.53.05-1.11.05h-.35l-.12-.05c-.82-.05-1.46-.35-1.86-.55-1.11-.56-1.92-1.52-2.39-2.79v-.05c-.06-.15-.06-.3-.12-.4,0-.1-.06-.25-.06-.46v-9.42c0-2.73,1.22-4.96,2.68-7.04-.06-.05-.06-.1-.12-.1-1.34-2.48-2.44-4.41-2.56-9.73h.06v-6.28c.41-2.28,2.45-4,4.89-4h1.05c2.68,0,4.89,2.08,4.95,4.66v5.62c0,3.8-2.15,6.64-4.25,9.32-.23.25-.41.46-.58.71.47.86.93,1.82,1.46,3.09.76,1.92,1.57,4.15,2.39,6.38.23-2.43.17-4.61.17-5.47v-.35h3.03ZM267.89,219.57c-1.05,0-1.92.96-1.92,2.13v5.47c.06,3.85.64,5.57,1.57,7.35,1.75-2.28,3.32-4.51,3.32-7.3v-5.52c0-1.17-.88-2.13-1.92-2.13h-1.05ZM271.61,252.25c-.06-.2-.12-.41-.17-.61-1.17-3.5-2.56-7.3-3.84-10.44-.12-.41-.29-.81-.47-1.17-.7,1.27-1.17,2.59-1.17,4.05v9.22c.06.1.06.2.06.25v.15c.23.56.58.96.99,1.21.29.15.47.2.64.25h.93c.93-.15,2.09-.81,3.03-2.94Z"></path><path class="cls-2" d="M327.97,217.34c1.92,0,3.14.41,4.19,1.17.99.81,1.57,1.92,1.57,3.34v12.92c-.06,1.32-.64,2.33-1.57,3.09-.06.05-.12.1-.18.15.06.05.12.1.18.15.99.76,1.57,1.88,1.57,3.29v11.9c0,1.42-.58,2.48-1.57,3.29-1.05.81-2.27,1.21-4.19,1.21h-5.18v-40.53h5.18ZM325.7,236.95h2.27c.82-.05,1.63-.25,2.09-.71.35-.35.58-.81.64-1.32,0-.05.06-.3.06-.35v-12.71c0-.71-.29-1.27-.7-1.67-.46-.46-1.28-.66-2.09-.71h-2.27v17.48ZM327.97,255.69c.82,0,1.63-.2,2.09-.66.41-.46.7-1.01.7-1.67v-11.55c0-.66-.29-1.21-.7-1.62-.46-.46-1.16-.66-1.98-.71h-2.39v16.21h2.27Z"></path><path class="cls-2" d="M365.17,257.87l-.7-6.94h-3.84l-.7,6.94h-2.91l4.08-40.57h2.91l4.08,40.57h-2.91ZM360.92,248.4h3.32l-1.69-16.46-1.63,16.46Z"></path><path class="cls-2" d="M399.41,217.3h2.91v40.57h-2.91l-5.12-25.68v25.68h-2.91v-40.57h2.91l5.12,25.68v-25.68Z"></path><path class="cls-2" d="M438.53,256.96l-1.51,1.72-2.45-1.62c-.87.66-1.8,1.01-3.49,1.01-.93,0-1.69-.15-2.44-.35-.7-.2-1.22-.51-1.74-.91-.53-.36-.82-.81-1.05-1.37-.29-.51-.23-1.17-.23-1.88v-31.92c0-.71-.06-1.32.23-1.87.23-.51.52-.96,1.05-1.37.52-.41,1.05-.71,1.74-.91.76-.2,1.52-.3,2.44-.3,1.86,0,2.74.41,3.79,1.21.99.76,1.69,1.83,1.69,3.24v31.92c0,.71-.18,1.26-.41,1.82l2.38,1.57ZM428.64,253.56c0,.66.12,1.21.58,1.62.41.46.93.71,1.8.71s1.46-.25,1.92-.71c.47-.41.64-.96.64-1.62v-31.86c0-.66-.17-1.22-.64-1.67s-1.05-.66-1.92-.66-1.4.2-1.8.66c-.47.46-.58,1.01-.58,1.67v31.86Z"></path><path class="cls-2" d="M469.8,217.24h2.97v36.27c0,1.42-.7,2.48-1.69,3.24-1.05.81-1.92,1.22-3.79,1.22-.93,0-1.69-.1-2.44-.3-.7-.2-1.22-.51-1.74-.91-.53-.4-.82-.86-1.05-1.37-.29-.56-.23-1.17-.23-1.88v-36.27h3.03v36.22c0,.66.12,1.21.58,1.67.41.46.93.66,1.8.66s1.46-.2,1.92-.66c.47-.46.64-1.01.64-1.67v-36.22Z"></path><path class="cls-2" d="M498.97,219.88v17.07h4.19v2.53h-4.19v15.86h6.4v2.53h-9.31v-40.57h9.31v2.58h-6.4Z"></path><path class="cls-2" d="M539.61,217.34v2.53h-4.02v37.99h-2.91v-37.99h-4.02v-2.53h10.94Z"></path><path class="cls-2" d="M565.81,219.88v17.07h4.19v2.53h-4.19v15.86h6.4v2.53h-9.31v-40.57h9.31v2.58h-6.4Z"></path><path class="cls-2" d="M606.45,234.57c0,1.42-.58,2.53-1.57,3.29-.06.05-.12.1-.18.15.06.05.12.1.18.15.99.76,1.57,1.88,1.57,3.29v16.41h-2.97v-16.06c0-.66-.29-1.21-.7-1.62-.46-.46-1.16-.66-1.98-.71h-2.39v18.39h-2.91v-40.53h5.18c1.92,0,3.14.41,4.19,1.21.99.76,1.57,1.88,1.57,3.29v12.71ZM598.41,219.47v17.48h2.27c.82-.05,1.63-.25,2.09-.71.41-.41.7-.96.7-1.67v-12.71c0-.71-.29-1.27-.7-1.67-.46-.46-1.28-.66-2.09-.71h-2.27Z"></path><path class="cls-2" d="M629.74,257.87v-40.57h2.91v40.57h-2.91Z"></path><path class="cls-2" d="M664.09,257.87l-.7-6.94h-3.84l-.7,6.94h-2.91l4.08-40.57h2.91l4.08,40.57h-2.91ZM659.84,248.4h3.32l-1.69-16.46-1.63,16.46Z"></path></g></g></g></svg>