<svg xmlns="http://www.w3.org/2000/svg" id="Capa_2" data-name="Capa 2" viewBox="0 0 1581.7 659.61"><defs><style>      .cls-1 {        fill: #fff;      }    </style></defs><g id="Capa_1-2" data-name="Capa 1"><g><g><g><path class="cls-1" d="M400.13,359.48c-4.87-4.84-13.62-14.6-19.46-19.78-15.02-13.34-56.8-54.07-64.33-70.29-10.29-22.16-5.1-33.42-8.13-54-8.5-57.7-24.67-98.78,24.65-146.3,84.27-81.19,227.61-17,218.7,102.2-.63,8.48-5.09,18.17-5.22,26.07-.21,13.49,4.44,28.27,2.69,43.89-4.4,39.21-53.8,79.88-73.57,112.83-12.58,20.97-21.11,65.91-54.63,36.05-10.83-9.65-11.05-21.07-20.71-30.67ZM536.07,190.77c-3.05-.58-4.97.35-7.64,1.42-20.2,8.11-58.2,33.61-69.59,52.07-22.76,36.87,48.96,41.2,68.02,16.26,1.4-1.83,9.21-15.73,9.21-16.68v-53.07ZM321.2,206.31v40.13c0,.9,5.64,14.96,6.66,16.64,26.08,43.14,119.25,10.19,54.24-33.53-7.57-5.09-56.72-27.42-60.9-23.24ZM423.06,368.51c28.93,27.55,55.65-26.11,24.95-39.17-26.2-11.15-45.11,19.98-24.95,39.17Z"></path><path class="cls-1" d="M301.37,446.19c15.79,15.86,46.28,3.94,63.05-6.39,13.59-8.37,21.19-20.74,41.01-21.35,10.56-.33,29.8,12.56,25.8,23.26-4.58,12.25-21.66,11.76-33.74,18.22-17.52,9.37-38.09,30.52-48.25,47.53-16.68,27.93-27.94,92.51-65.63,95.11-10.73.74-20.46,1.22-31.29,2.13-55.73,4.66-62.28-52.9-85.05-90.43-22.26-7.92-43.41-19.44-65.44-27.76-17.86-6.75-61.59-9.73-57.65-32.84,5.3-31.11,61.67,6.17,75.94,11.96,11.2,4.55,37.53,16.44,48.35,11.21,11.37-10.15,8.74-19.46,3.05-31.54-14.14-30.01-51.12-83.4-70.82-112.98-8.38-12.59-28.92-23.81-16.21-40.44,15.14-19.82,39.35,4.72,48.24,18.77,19.74,31.21,52.87,117.29,83.96,133.49,35.78,18.65,44.08-47.86,42.06-70.55-.68-7.65-4.36-15.87-4.81-23.65-1.32-23.02.74-46.34-2.14-69.35,14.01-18.87,33.76-8.65,35.65,12.76.72,8.12-2.95,14.89-2.71,22.96.6,19.83,6.56,44.13,7.97,64.76s-6.48,49.9,8.67,65.11Z"></path><path class="cls-1" d="M629.27,485.9l86.62-191.77,73.48.61,85.84,191.15h-68.61l-14.65-30.64h-80.72s-14.66,30.64-14.66,30.64h-67.31ZM730.24,408.24h41.42l-19.44-49.2c-5.4-1.12-3.57,2.19-5.01,5.22-2.24,4.71-18.74,42.43-16.97,43.99Z"></path><path class="cls-1" d="M686.22,307.28c3.05,3.08-32.8,69.61-36.73,78.45-6.35,14.26-10.14,33.53-17.13,47.59-8.54,17.17-58.7,48.13-77.35,59.86-65.96,41.51-140.63,80.45-215.67,101.43,5.27-16.79,14.86-32.04,24.86-46.3,8.31-11.85,60.27-73.54,70.14-74.9,4.57-.63,9.25,2.51,14.62,1.98,56.93-5.64,157.84-81.32,173.21-138.98l64.05-29.13Z"></path><path class="cls-1" d="M1059.03,338.34v47.89l-3.88,3.88h-49.19c-2.63,0-3.75-8.5-5.21-10.33-3.24-4.06-43.34-7.56-37.51,7.71l95.79,25.91v68.61l-3.88,3.88h-159.22v-54.37h53.07c5.62,0,5.72,12.94,6.47,12.94h42.72l2.63-5.19-104.89-34.93v-66.02h163.1Z"></path><path class="cls-1" d="M1475.25,333.88c39.56-4.15,87.2,11.96,101.64,52.26,19.18,53.52-21.73,97.59-73.92,102.31-132.5,11.99-145.91-142.16-27.72-154.57ZM1466.31,438.49c6.11,6.74,20.5,7.3,29.07,6.1,32.4-4.55,28.69-68.34-10.16-64.69-26.47,2.48-34.09,41.84-18.91,58.6Z"></path><path class="cls-1" d="M1185.88,331.87c0,1.02-4.81,3.74,1.6,6.16l29.48.3.03,47.71c-.68,4.52-27.49-2.67-31.11,5.38v90.61l-3.88,3.88h-59.54l-3.32-3.88c-.08-1.05,2.03-1.95,2.03-2.59v-89.32h-31.07v-51.78c9.99-1.34,23.55,3.71,31.07-3.88v-45.31h60.84l3.88,3.88c-.08,12.94.11,25.89,0,38.83Z"></path><path class="cls-1" d="M1372.28,338.34v51.78h-56.96v91.9l-3.88,3.88h-59.54l-3.32-3.88c-.08-1.05,2.03-1.95,2.03-2.59v-141.09h121.68Z"></path><path class="cls-1" d="M603.38,506.61h36.24c-34.98,36.05-81.55,65.64-127.69,85.9-36.42,15.99-106.77,39.11-144.16,24.11-2.48-.99-5.91-.33-5.14-3.83,89.89-23.34,174.92-69.42,247.23-126.87l-6.49,20.69Z"></path><path class="cls-1" d="M598.21,338.35c5.64,5.72-17.14,33.65-21.98,38.85-24.26,26.06-95.22,76.34-130.14,79.64-4.51.43-5.4.82-8.35-3.3,18.52-22.79,35.95-46.59,58.13-66.08,26.79-23.53,65.49-50.17,102.33-49.11Z"></path><path class="cls-1" d="M269.41,628.3c1.25,6.74-1.26,4.56-5.15,6.36-38.01,17.52-85.74-28.66-95.77-63.32,25.29,32.93,53.36,70.34,100.93,56.97Z"></path><path class="cls-1" d="M160.71,592.05c18.21,22.12,31.84,46.82,60.72,57.05l32.4,6.38c-.22,5.87-22.33,3.99-26.52,3.27-26.82-4.63-58.53-41.32-66.6-66.69Z"></path><path class="cls-1" d="M36.41,478.12c-20.63-6.2-18.76-31.97-3.86-43.98,2,9.04-4.81,14.01-4.06,24.54.66,9.3,6.63,11.52,7.91,19.44Z"></path><path class="cls-1" d="M15.71,434.15c-8.76,10.59-13.54,15.22-7.17,29.17.52,1.14,13.44,16.44,3.32,12.21-15.21-6.37-17.7-41.86,3.85-41.37Z"></path><path class="cls-1" d="M248.7,260.69c1.16,7.81-6.58,4.71-9.2,12.75-2.64,8.08-1.42,16.95,1.48,24.74l-5.17,1.32c-7.99-13.2-5.62-37.85,12.89-38.81Z"></path><path class="cls-1" d="M80.42,276.22c1.44,7.97-7.11,5.21-11.55,10.42-9.74,11.42,2.42,17.24-.08,28.39-15.05-14.96-10.39-36.58,11.62-38.81Z"></path><path class="cls-1" d="M393.67,405.66c1.33,7.35-1.78,4.25-5.68,5.82-8.37,3.38-16.83,7.92-25.37,9.67,6.49-11.52,17.92-16.73,31.05-15.49Z"></path></g><g><path class="cls-1" d="M829.19,519.76v4.9h25.75v12.41h-25.75v4.96h25.75v12.34h-41.44v-46.94h41.44v12.34h-25.75Z"></path><path class="cls-1" d="M860.97,507.42h15.69l18.64,24.41h.47v-24.41h15.69v46.94h-15.69l-18.58-23.61h-.54v23.61h-15.69v-46.94Z"></path><path class="cls-1" d="M929.77,519.83h-13.95v-12.41h43.59v12.41h-13.95v34.54h-15.69v-34.54Z"></path><path class="cls-1" d="M986.84,537h-7.38v17.37h-15.69v-46.94h33.2c9.52,0,15.29,5.5,15.29,14.89,0,6.24-4.16,11.27-9.72,13.48l11.27,18.58h-17.03l-9.93-17.37ZM979.46,524.72h14.55c1.48,0,2.55-1.01,2.55-2.55,0-1.68-1.07-2.42-2.55-2.42h-14.55v4.96Z"></path><path class="cls-1" d="M1034.51,519.76v4.9h25.75v12.41h-25.75v4.96h25.75v12.34h-41.44v-46.94h41.44v12.34h-25.75Z"></path><path class="cls-1" d="M1078.57,519.83h-13.95v-12.41h43.59v12.41h-13.95v34.54h-15.69v-34.54Z"></path><path class="cls-1" d="M1128.93,519.76v4.9h25.75v12.41h-25.75v4.96h25.75v12.34h-41.44v-46.94h41.44v12.34h-25.75Z"></path><path class="cls-1" d="M1160.71,507.42h15.69l18.64,24.41h.47v-24.41h15.69v46.94h-15.69l-18.58-23.61h-.54v23.61h-15.69v-46.94Z"></path><path class="cls-1" d="M1217.58,507.42h15.69v46.94h-15.69v-46.94Z"></path><path class="cls-1" d="M1239.64,507.42h15.89l10.53,14.89h.54l10.53-14.89h15.89v46.94h-15.69v-24.54h-.4l-10.33,13.61h-.54l-10.33-13.61h-.4v24.54h-15.69v-46.94Z"></path><path class="cls-1" d="M1299.39,507.42h15.69v46.94h-15.69v-46.94Z"></path><path class="cls-1" d="M1337.81,519.76v4.9h25.75v12.41h-25.75v4.96h25.75v12.34h-41.44v-46.94h41.44v12.34h-25.75Z"></path><path class="cls-1" d="M1369.6,507.42h15.69l18.64,24.41h.47v-24.41h15.69v46.94h-15.69l-18.58-23.61h-.54v23.61h-15.69v-46.94Z"></path><path class="cls-1" d="M1438.4,519.83h-13.95v-12.41h43.59v12.41h-13.95v34.54h-15.69v-34.54Z"></path><path class="cls-1" d="M1469.71,530.83c0-13.35,10.86-24.14,24.21-24.14s24.21,10.8,24.21,24.14-10.86,24.21-24.21,24.21-24.21-10.8-24.21-24.21ZM1502.57,530.83c0-4.76-3.89-8.65-8.65-8.65s-8.65,3.89-8.65,8.65,3.89,8.72,8.65,8.72,8.65-3.89,8.65-8.72Z"></path><path class="cls-1" d="M1522.35,541.96h24.48c2.08,0,3.08-.94,3.08-2.48s-1.01-2.41-3.15-2.41h-11.13c-7.85,0-14.22-5.37-14.22-14.82,0-10.86,7.44-14.82,14.96-14.82h27.76v12.41h-23.94c-1.81,0-3.08.67-3.08,2.35s1.27,2.48,3.08,2.48h10.46c8.99,0,14.96,5.3,14.96,14.75,0,8.92-6.71,14.96-15.42,14.96h-28.03l.2-12.41Z"></path></g></g><polygon class="cls-1" points="120.2 403.8 108.11 403 103.55 391.56 99 403 86.91 403.8 96.18 411.67 93.14 423.61 103.55 417.02 113.96 423.61 110.92 411.67 120.2 403.8"></polygon><polygon class="cls-1" points="200.91 307.37 188.81 306.57 184.26 295.13 179.7 306.57 167.62 307.37 176.89 315.24 173.85 327.17 184.26 320.59 194.67 327.17 191.63 315.24 200.91 307.37"></polygon><polygon class="cls-1" points="128.63 224.53 116.53 223.73 111.98 212.29 107.42 223.73 95.34 224.53 104.61 232.4 101.56 244.34 111.98 237.75 122.39 244.34 119.35 232.4 128.63 224.53"></polygon><polygon class="cls-1" points="218.57 224.53 206.47 223.73 201.91 212.29 197.36 223.73 185.28 224.53 194.54 232.4 191.5 244.34 201.91 237.75 212.33 244.34 209.29 232.4 218.57 224.53"></polygon><polygon class="cls-1" points="288.65 189.08 276.56 188.28 272 176.84 267.45 188.28 255.36 189.08 264.63 196.94 261.59 208.88 272 202.3 282.41 208.88 279.37 196.94 288.65 189.08"></polygon><polygon class="cls-1" points="203.42 106.94 191.32 106.15 186.77 94.7 182.21 106.15 170.13 106.94 179.4 114.81 176.35 126.75 186.77 120.16 197.18 126.75 194.14 114.81 203.42 106.94"></polygon><polygon class="cls-1" points="274.68 93.79 262.58 93 258.03 81.55 253.47 93 241.39 93.79 250.66 101.66 247.61 113.6 258.03 107.02 268.44 113.6 265.4 101.66 274.68 93.79"></polygon><polygon class="cls-1" points="328.16 18.22 316.06 17.43 311.51 5.98 306.95 17.43 294.87 18.22 304.13 26.09 301.09 38.03 311.51 31.45 321.92 38.03 318.88 26.09 328.16 18.22"></polygon><polygon class="cls-1" points="519.06 12.24 506.97 11.44 502.41 0 497.86 11.44 485.77 12.24 495.04 20.11 492 32.05 502.41 25.46 512.82 32.05 509.78 20.11 519.06 12.24"></polygon><polygon class="cls-1" points="615.13 131.84 603.04 131.05 598.48 119.6 593.93 131.05 581.84 131.84 591.11 139.71 588.07 151.65 598.48 145.07 608.89 151.65 605.85 139.71 615.13 131.84"></polygon><polygon class="cls-1" points="628.33 61.42 616.24 60.63 611.68 49.18 607.13 60.63 595.05 61.42 604.31 69.29 601.27 81.23 611.68 74.65 622.1 81.23 619.05 69.29 628.33 61.42"></polygon><polygon class="cls-1" points="693.63 181.32 681.53 180.52 676.98 169.08 672.42 180.52 660.34 181.32 669.61 189.19 666.57 201.12 676.98 194.54 687.39 201.12 684.35 189.19 693.63 181.32"></polygon><polygon class="cls-1" points="672.92 238.25 660.82 237.46 656.27 226.01 651.71 237.46 639.63 238.25 648.9 246.12 645.86 258.06 656.27 251.48 666.68 258.06 663.64 246.12 672.92 238.25"></polygon><polygon class="cls-1" points="353.89 363.11 341.79 362.32 337.24 350.87 332.68 362.32 320.6 363.11 329.87 370.98 326.82 382.92 337.24 376.34 347.65 382.92 344.61 370.98 353.89 363.11"></polygon></g></g></svg>