<svg xmlns="http://www.w3.org/2000/svg" id="Capa_2" data-name="Capa 2" viewBox="0 0 322.72 67.34"><defs><style>      .cls-1 {        fill: #444;      }    </style></defs><g id="Capa_1-2" data-name="Capa 1"><g><path class="cls-1" d="M54.66,58.06c-5.53,5.87-13.45,9.28-22.98,9.28C12.61,67.34,0,53.89,0,33.71S12.61.08,31.68.08c9.54,0,17.45,3.41,22.98,9.28l-9.62,10.21c-3.49-4-8.43-5.79-13.28-5.79-9.11,0-17.87,5.71-17.87,19.92s8.76,19.92,17.87,19.92c4.86,0,9.79-1.79,13.28-5.79l9.62,10.22Z"></path><path class="cls-1" d="M99.18,65.64l-21.97-11.92-3.75,11.92h-14.56L79.08,1.79h14.47l20.18,63.85h-14.56ZM93.3,46.9l-6.98-22.13-4.94,15.75,11.92,6.39Z"></path><path class="cls-1" d="M117.98,1.79h13.62v50.23h23.93v13.62h-37.55V1.79Z"></path><path class="cls-1" d="M211.88,58.06c-5.53,5.87-13.45,9.28-22.98,9.28-19.07,0-31.68-13.45-31.68-33.63S169.83.08,188.9.08c9.54,0,17.45,3.41,22.98,9.28l-9.62,10.21c-3.49-4-8.43-5.79-13.28-5.79-9.11,0-17.87,5.71-17.87,19.92s8.76,19.92,17.87,19.92c4.86,0,9.79-1.79,13.28-5.79l9.62,10.22Z"></path><path class="cls-1" d="M234.1,65.64c-12.01,0-17.97-5.36-17.97-16.43,0-9.87,4.86-15.32,14.56-16.26-6.3-1.87-9.45-6.9-9.45-15.16,0-10.81,5.36-16,16.09-16h28.26v13.62h-24.17c-3.07,0-4.86,2.46-4.86,5.53,0,2.81,1.79,5.62,4.86,5.62h17.36v13.45h-22.22c-3.32,0-5.1,2.98-5.1,6.13,0,3.32,1.79,5.87,5.1,5.87h29.03v13.62h-31.5Z"></path><path class="cls-1" d="M322.72,47.08c0,14.81-14.65,20.26-26.82,20.26-13.28,0-27.75-5.45-27.75-23.67h13.62c0,7.16,8.09,10.05,14.13,10.05,7.32,0,13.03-2.81,13.03-6.72,0-10.64-39.08-2.21-39.08-26.73,0-14.81,13.79-20.26,26.05-20.26s25.12,5.45,25.12,23.66h-13.62c0-6.3-6.39-10.04-12.35-10.04-7.41,0-11.41,3.66-11.41,6.72,0,11.91,39.08,2.13,39.08,26.73Z"></path></g></g></svg>