<svg xmlns="http://www.w3.org/2000/svg" id="Capa_2" data-name="Capa 2" viewBox="0 0 718.3 188.19"><defs><style>      .cls-1 {        fill: #377bbf;      }      .cls-2 {        fill: #9f4794;      }      .cls-3 {        fill: #644796;      }      .cls-4 {        fill: #414495;      }      .cls-5 {        fill: #f59b41;      }    </style></defs><g id="Capa_1-2" data-name="Capa 1"><path class="cls-5" d="M149.72,133.71l14.6-14.6c3.67-3.66,3.76-9.48.21-13.26l-11.93-11.93,11.09-11.09c3.71-3.71,3.71-9.76,0-13.47l-14.89-14.89c-3.71-3.71-9.76-3.71-13.48,0l-12.4,12.4c-1.85,1.86-2.79,4.3-2.79,6.74s.93,4.88,2.79,6.74l13.57,13.57-13.27,13.27c-1.86,1.86-2.86,4.35-2.79,7,.06,2.53,1.21,4.9,2.99,6.69l12.83,12.82c1.8,1.81,4.19,2.79,6.74,2.79s4.94-.99,6.73-2.79M134.82,76.15c-1.39-1.39-1.39-3.66,0-5.06l7.24-7.23,9.72,9.72c1.39,1.39,1.39,3.66,0,5.06l-7.24,7.23-9.72-9.72ZM135.12,116.47c-1.39-1.4-1.39-3.67,0-5.06l9.43-9.43,7.87,7.87c1.39,1.39,1.39,3.66,0,5.05l-9.43,9.43-7.87-7.86Z"></path><path class="cls-3" d="M157.84,93.86l8.48-8.48c4.09-4.09,10.73-4.09,14.82,0l6.03,6.03c1.36,1.36,1.36,3.56,0,4.91l-6.03,6.03c-4.09,4.09-10.73,4.09-14.82,0l-8.48-8.48Z"></path><path class="cls-4" d="M52.86,133.71l12.41-12.4c1.85-1.86,2.79-4.3,2.79-6.74s-.93-4.88-2.79-6.74l-13.57-13.57,13.27-13.27c1.86-1.86,2.86-4.35,2.79-7-.07-2.52-1.21-4.9-2.99-6.69l-12.83-12.82c-1.8-1.81-4.2-2.79-6.74-2.79s-4.94.99-6.74,2.79l-14.59,14.6c-3.66,3.66-3.76,9.48-.21,13.26l11.93,11.93-11.09,11.08c-3.71,3.72-3.71,9.77,0,13.48l14.89,14.89c3.71,3.71,9.76,3.71,13.47,0M35.78,78.34c-1.4-1.39-1.4-3.66,0-5.06l9.43-9.42,7.87,7.86c1.39,1.4,1.39,3.66,0,5.06l-9.43,9.43-7.87-7.87ZM36.41,114.62c-1.39-1.39-1.39-3.66,0-5.06l7.24-7.23,9.71,9.72c1.4,1.39,1.4,3.66,0,5.06l-7.23,7.24-9.72-9.72Z"></path><path class="cls-3" d="M30.35,94.33l-8.48,8.48c-4.09,4.09-10.73,4.09-14.82,0l-6.03-6.03c-1.36-1.36-1.36-3.56,0-4.91l6.03-6.03c4.09-4.09,10.72-4.09,14.82,0l8.48,8.48Z"></path><path class="cls-2" d="M82.34,164.53l11.93-11.93,11.08,11.09c3.72,3.71,9.77,3.71,13.48,0l14.89-14.89c3.71-3.71,3.71-9.76,0-13.48l-12.4-12.4c-1.86-1.85-4.3-2.79-6.74-2.79s-4.88.93-6.74,2.79l-13.57,13.57-13.27-13.27c-1.86-1.86-4.35-2.86-7-2.79-2.53.06-4.9,1.21-6.69,2.99l-12.82,12.83c-1.8,1.8-2.79,4.19-2.79,6.74s.99,4.94,2.79,6.74l14.6,14.6c3.66,3.67,9.48,3.76,13.26.21M112.04,134.82c1.39-1.39,3.66-1.39,5.06,0l7.23,7.24-9.72,9.72c-1.39,1.39-3.66,1.39-5.06,0l-7.23-7.24,9.72-9.72ZM73.28,152.41l-9.43-9.43,7.87-7.87c1.4-1.39,3.66-1.39,5.06,0l9.43,9.43-7.87,7.87c-1.39,1.39-3.66,1.39-5.06,0"></path><path class="cls-3" d="M94.33,157.84l8.48,8.48c4.09,4.09,4.09,10.73,0,14.82l-6.03,6.03c-1.36,1.36-3.56,1.36-4.91,0l-6.03-6.03c-4.09-4.09-4.09-10.73,0-14.82l8.48-8.48Z"></path><path class="cls-1" d="M80.36,65.27l13.57-13.57,13.27,13.27c1.86,1.86,4.35,2.86,7,2.79,2.52-.07,4.9-1.21,6.69-2.99l12.82-12.83c1.8-1.8,2.79-4.19,2.79-6.74s-1-4.94-2.79-6.74l-14.6-14.6c-3.66-3.67-9.48-3.76-13.26-.21l-11.93,11.93-11.09-11.09c-3.71-3.71-9.76-3.71-13.47,0l-14.89,14.89c-3.71,3.71-3.71,9.76,0,13.48l12.4,12.4c1.86,1.85,4.3,2.79,6.74,2.79s4.88-.93,6.74-2.79M114.9,35.78l9.43,9.43-7.86,7.87c-1.4,1.39-3.66,1.39-5.06,0l-9.43-9.43,7.87-7.87c1.39-1.39,3.66-1.39,5.05,0M71.09,53.36l-7.23-7.23,9.72-9.72c1.39-1.39,3.66-1.39,5.05,0l7.24,7.24-9.72,9.71c-1.39,1.4-3.66,1.4-5.06,0"></path><path class="cls-3" d="M93.86,30.35l-8.48-8.48c-4.09-4.09-4.09-10.73,0-14.82l6.03-6.03c1.36-1.36,3.56-1.36,4.91,0l6.03,6.03c4.09,4.09,4.09,10.72,0,14.82l-8.48,8.48Z"></path><path class="cls-3" d="M113.84,84.92l-10.57-10.57c-5.07-5.06-13.27-5.06-18.34,0l-10.57,10.57c-5.06,5.07-5.06,13.27,0,18.34l10.57,10.57c5.07,5.07,13.27,5.07,18.34,0l10.57-10.57c5.06-5.07,5.06-13.27,0-18.34M109.87,99.48l-12.28,12.28c-1.93,1.93-5.06,1.93-6.99,0l-12.29-12.28c-1.39-1.38-2.03-3.15-2.03-4.89,0-2.73,1.6-5.41,4.47-6.51,4.19-1.61,8.93-.59,12.1,2.58l1.24,1.24,1.24-1.24c2.18-2.18,5.08-3.33,8.04-3.33,1.36,0,2.74.25,4.06.75,4.7,1.8,5.99,7.84,2.44,11.4"></path><path class="cls-3" d="M225.3,67.93c3.59-3.53,7.89-5.29,12.92-5.29h41.26v9.87h-41.26c-2.27,0-4.22.81-5.83,2.42-1.2,1.2-1.97,2.6-2.33,4.22-.06.54-.09,1.08-.09,1.62v8.34h42.97v9.87h-34.71c-2.27,0-4.22.81-5.83,2.42-1.62,1.62-2.42,3.56-2.42,5.83v8.25h49.52v9.96h-59.47v-44.67c0-5.02,1.76-9.3,5.29-12.83"></path><path class="cls-3" d="M293.92,95.73c0,.96.33,1.74.99,2.33.66.6,1.43.9,2.33.9h16.51c3.05,0,5.74.93,8.07,2.78,2.33,1.86,3.89,4.25,4.67,7.18.3,1.08.45,2.18.45,3.32,0,3.65-1.29,6.76-3.86,9.33-2.57,2.57-5.68,3.86-9.33,3.86h-29.78v-4.93c0-1.38.48-2.56,1.43-3.54.96-.99,2.12-1.48,3.5-1.48h24.76c.9,0,1.67-.3,2.33-.9.66-.6,1.02-1.38,1.08-2.33-.06-.96-.39-1.73-.99-2.33-.66-.66-1.44-.99-2.33-.99h-16.6c-3.65,0-6.76-1.29-9.33-3.86-1.67-1.67-2.81-3.71-3.41-6.1-.3-1.02-.45-2.09-.45-3.23.12-3.77,1.46-6.92,4.04-9.46,2.57-2.54,5.68-3.81,9.33-3.81h29.6v4.93c0,1.38-.48,2.54-1.43,3.5-.96.96-2.12,1.43-3.5,1.43h-24.85c-.9,0-1.68.33-2.33.99-.6.66-.9,1.47-.9,2.42"></path><path class="cls-3" d="M352.95,125.43c-4.31,0-8.16-1.14-11.57-3.41v23.23h-9.96v-42.97h.09c.54-5.68,2.83-10.4,6.86-14.17,4.04-3.77,8.89-5.65,14.58-5.65s10.97,2.09,15.16,6.28c4.18,4.19,6.28,9.24,6.28,15.16s-2.09,11.06-6.28,15.25c-4.19,4.19-9.24,6.28-15.16,6.28M361.11,95.73c-2.27-2.27-4.99-3.41-8.16-3.41s-5.96,1.14-8.21,3.41c-2.24,2.27-3.36,4.99-3.36,8.16s1.12,5.97,3.36,8.21c2.24,2.24,4.98,3.36,8.21,3.36s5.89-1.12,8.16-3.36c2.27-2.24,3.41-4.98,3.41-8.21s-1.14-5.89-3.41-8.16"></path><path class="cls-3" d="M421.75,102.28c.06.54.09,1.08.09,1.62v21.53h-6.55c-1.85,0-2.96-1.14-3.32-3.41-3.47,2.27-7.33,3.41-11.57,3.41-5.98,0-11.06-2.09-15.25-6.28-4.01-4.07-6.1-9.15-6.28-15.25.18-6.04,2.29-11.08,6.32-15.12,4.04-4.04,9.07-6.15,15.11-6.32,6.1.12,11.18,2.21,15.25,6.28,3.65,3.65,5.71,8.16,6.19,13.54M400.58,115.47c3.17-.12,5.82-1.24,7.94-3.36,2.12-2.12,3.27-4.77,3.45-7.94-.06-3.35-1.2-6.16-3.41-8.43-2.27-2.27-4.99-3.41-8.16-3.41s-5.98,1.14-8.25,3.41c-2.21,2.27-3.32,4.99-3.32,8.16s1.11,5.98,3.32,8.25c2.27,2.21,5.08,3.32,8.43,3.32"></path><path class="cls-3" d="M458.88,107.22c2.87,0,4.86,1.26,5.97,3.77,1.11,2.51.76,4.93-1.03,7.26-4.31,4.79-9.63,7.18-15.97,7.18-5.98,0-11.07-2.09-15.25-6.28-4.19-4.19-6.28-9.27-6.28-15.25s2.09-10.97,6.28-15.16c4.18-4.18,9.27-6.28,15.25-6.28,6.34,0,11.66,2.39,15.97,7.18,1.79,2.27,2.14,4.68,1.03,7.22-1.11,2.54-3.09,3.81-5.97,3.81-.72-2.45-2.09-4.45-4.13-6.01-2.03-1.56-4.34-2.33-6.91-2.33-3.23,0-5.97,1.14-8.21,3.41-2.24,2.27-3.36,4.99-3.36,8.16s1.12,5.96,3.36,8.21c2.24,2.24,4.98,3.36,8.21,3.36,2.57,0,4.87-.76,6.91-2.29,2.03-1.52,3.41-3.51,4.13-5.96"></path><path class="cls-3" d="M481.26,73.89c-1.29,1.29-2.83,1.93-4.62,1.93s-3.42-.64-4.71-1.93c-1.29-1.29-1.93-2.85-1.93-4.71s.64-3.33,1.93-4.62c1.29-1.29,2.85-1.93,4.71-1.93s3.33.64,4.62,1.93c1.29,1.29,1.93,2.83,1.93,4.62s-.64,3.42-1.93,4.71M481.58,82.46v38.03c0,1.38-.48,2.54-1.43,3.5-.96.96-2.12,1.43-3.5,1.43h-5.02v-38.03c0-1.38.49-2.54,1.48-3.5.99-.96,2.17-1.43,3.54-1.43h4.93Z"></path><path class="cls-3" d="M524.37,88.74c4.18,4.19,6.28,9.24,6.28,15.16s-2.09,11.06-6.28,15.25c-4.19,4.19-9.24,6.28-15.16,6.28s-11.06-2.09-15.25-6.28c-4.19-4.19-6.28-9.27-6.28-15.25s2.09-10.97,6.28-15.16c4.18-4.19,9.27-6.28,15.25-6.28s10.97,2.09,15.16,6.28M520.78,103.9c0-3.17-1.14-5.89-3.41-8.16-2.27-2.27-4.99-3.41-8.16-3.41s-5.96,1.14-8.21,3.41c-2.24,2.27-3.36,4.99-3.36,8.16s1.12,5.96,3.36,8.21c2.24,2.24,4.98,3.36,8.21,3.36s5.89-1.12,8.16-3.36c2.27-2.24,3.41-4.98,3.41-8.21"></path><path class="cls-2" d="M550.87,78.33c-3.86,3.89-5.79,8.55-5.79,13.99v3.32c0,5.5,1.93,10.18,5.79,14.04,3.86,3.86,8.54,5.79,14.04,5.79,4.31,0,8.13-1.21,11.48-3.63s5.74-5.61,7.18-9.55c2.75,0,4.74,1.18,5.96,3.54,1.23,2.36,1.09,4.74-.4,7.13-2.75,3.83-6.23,6.86-10.45,9.1-4.22,2.24-8.81,3.36-13.77,3.36-8.25,0-15.28-2.9-21.08-8.7-5.8-5.8-8.7-12.83-8.7-21.08v-3.32c0-8.19,2.9-15.19,8.7-20.99,5.8-5.8,12.83-8.7,21.08-8.7,4.96,0,9.55,1.12,13.77,3.36,4.22,2.24,7.7,5.28,10.45,9.1,1.49,2.39,1.63,4.77.4,7.13-1.23,2.36-3.21,3.54-5.96,3.54-1.44-3.95-3.83-7.15-7.18-9.6-3.35-2.45-7.18-3.68-11.48-3.68-5.5,0-10.18,1.94-14.04,5.83"></path><path class="cls-1" d="M600.16,67.93c3.59-3.53,7.89-5.29,12.92-5.29h41.26v9.87h-41.26c-2.27,0-4.22.81-5.83,2.42-1.2,1.2-1.97,2.6-2.33,4.22-.06.54-.09,1.08-.09,1.62v8.34h42.97v9.87h-34.72c-2.27,0-4.22.81-5.83,2.42-1.61,1.62-2.42,3.56-2.42,5.83v8.25h49.52v9.96h-59.47v-44.67c0-5.02,1.76-9.3,5.29-12.83"></path><path class="cls-5" d="M709.6,71.33c5.8,5.8,8.7,12.8,8.7,20.99v33.1c-2.69,0-5.01-.97-6.95-2.92-1.94-1.94-2.92-4.29-2.92-7.04v-9.87h-39.65v9.87c0,2.75-.97,5.1-2.91,7.04-1.94,1.94-4.29,2.92-7.04,2.92v-33.1c0-8.19,2.9-15.19,8.7-20.99,5.8-5.8,12.83-8.7,21.08-8.7s15.19,2.9,20.99,8.7M668.78,95.64h39.65v-3.32c0-5.44-1.94-10.11-5.83-13.99-3.89-3.89-8.55-5.83-13.99-5.83s-10.18,1.94-14.04,5.83c-3.86,3.89-5.79,8.55-5.79,13.99v3.32Z"></path></g></svg>