<svg xmlns="http://www.w3.org/2000/svg" xmlns:xlink="http://www.w3.org/1999/xlink" id="Capa_2" data-name="Capa 2" viewBox="0 0 548.79 125.19"><defs><style>      .cls-1 {        fill: none;      }      .cls-2 {        fill: #488ce6;      }      .cls-3 {        fill: #a6a6a6;      }      .cls-4 {        clip-path: url(#clippath-1);      }      .cls-5 {        clip-path: url(#clippath-3);      }      .cls-6 {        clip-path: url(#clippath-2);      }      .cls-7 {        fill: #6ce5e8;      }      .cls-8 {        clip-path: url(#clippath);      }    </style><clipPath id="clippath"><rect class="cls-1" x="17.47" y="30.57" width="64.05" height="64.05"></rect></clipPath><clipPath id="clippath-1"><path class="cls-1" d="M49.5,30.57c17.69,0,32.02,14.34,32.02,32.02s-14.34,32.02-32.02,32.02-32.02-14.34-32.02-32.02S31.81,30.57,49.5,30.57v12.81c-10.61,0-19.21,8.6-19.21,19.21s8.6,19.21,19.21,19.21,19.21-8.6,19.21-19.21-8.6-19.21-19.21-19.21v-12.81Z"></path></clipPath><clipPath id="clippath-2"><rect class="cls-1" x="24.1" y="31.07" width="57.54" height="63.55"></rect></clipPath><clipPath id="clippath-3"><path class="cls-1" d="M57.37,31.34c13.18,3.4,22.77,14.77,23.91,28.34,1.13,13.57-6.44,26.37-18.87,31.92-12.44,5.54-27.02,2.62-36.35-7.3-2.42-2.58-2.3-6.63.27-9.05,2.58-2.42,6.63-2.3,9.05.27,5.6,5.95,14.35,7.7,21.81,4.38,7.46-3.33,12-11.01,11.32-19.15-.68-8.14-6.43-14.96-14.34-17.01-2.22-.57-3.96-2.28-4.57-4.49-.61-2.2,0-4.57,1.6-6.2,1.6-1.63,3.96-2.29,6.17-1.71Z"></path></clipPath></defs><g id="Capa_1-2" data-name="Capa 1"><g><g><g><rect class="cls-3" x="4.83" width="73.77" height="9.66"></rect><rect class="cls-3" x="89.45" y=".03" width="9.66" height="119.45"></rect><rect class="cls-3" x="21.66" y="115.53" width="77.44" height="9.66"></rect><rect class="cls-3" y=".03" width="9.66" height="124.07"></rect></g><g><g class="cls-8"><g class="cls-4"><rect class="cls-7" x="17.47" y="30.57" width="64.05" height="64.05"></rect></g></g><g class="cls-6"><g class="cls-5"><rect class="cls-2" x="17.34" y="30.32" width="64.05" height="64.05"></rect></g></g></g></g><g><path d="M131.21,57.75c-2.11,1.97-4.73,2.95-7.84,2.95h-7.61v13.82h-3.6v-34.94h11.2c3.09,0,5.7.98,7.84,2.93,2.18,1.99,3.26,4.53,3.26,7.6s-1.09,5.6-3.26,7.63ZM123.88,57.21c2.01,0,3.67-.68,4.98-2.03,1.34-1.37,2-3.09,2-5.15s-.63-3.74-1.9-5.05c-1.27-1.3-2.96-1.95-5.09-1.95h-8.12v14.18h8.12Z"></path><path d="M175.52,57.76c-1.9,1.78-4.21,2.75-6.93,2.93l10.76,13.85h-4.83l-10.25-13.82h-4.19v13.82h-3.6v-34.94h11.2c3.11,0,5.72.98,7.84,2.95,2.18,2.03,3.26,4.55,3.26,7.58s-1.09,5.6-3.26,7.63ZM168.2,57.27c2.02,0,3.69-.69,4.98-2.06,1.34-1.41,2-3.13,2-5.17s-.63-3.71-1.9-5.03c-1.27-1.32-2.96-1.98-5.09-1.98h-8.12v14.23h8.12Z"></path><path d="M201.56,74.54v-34.94h20.76v3.34h-17.16v12.44h16.65v3.39h-16.65v12.44h17.16v3.34h-20.76Z"></path><path d="M273.93,49.67l-10.48,26.93-10.53-26.93-5.4,24.87h-3.7l8.17-37.26,11.46,29.91,11.46-29.91,8.12,37.26h-3.65l-5.45-24.87Z"></path><path d="M304.52,74.54v-34.94h3.6v34.94h-3.6Z"></path><path d="M354.54,71.92c-2.33,2.06-5.43,3.08-9.3,3.08s-7.02-1.03-9.35-3.08c-2.47-2.18-3.7-5.16-3.7-8.94v-23.38h3.6v23.9c0,2.63.95,4.65,2.85,6.06,1.66,1.23,3.86,1.85,6.6,1.85,4.27,0,7.14-1.44,8.63-4.32.51-.99.77-2.19.77-3.6v-23.9h3.6v23.38c0,3.78-1.23,6.76-3.7,8.94Z"></path><path d="M409.07,49.67l-10.48,26.93-10.54-26.93-5.4,24.87h-3.7l8.17-37.26,11.46,29.91,11.46-29.91,8.12,37.26h-3.65l-5.45-24.87Z"></path><path d="M455.75,70.94v3.6h-16.08v-34.94h3.6v31.35h12.49Z"></path><path d="M501.19,74.54l-3.75-9.51h-15.35l-3.77,9.51h-3.91l15.37-37.36,15.31,37.36h-3.91ZM496.12,61.69l-6.34-16.08-6.37,16.08h12.71Z"></path><path d="M517.08,39.59h3.91l11.97,28.16,11.92-28.16h3.9l-15.83,37.05-15.88-37.05Z"></path></g><g><path d="M221.84,107.66v2.02h-10.19v-19.64h2.28v17.62h7.91Z"></path><path d="M246.28,109.68l-2.37-5.34h-9.72l-2.38,5.34h-2.47l9.73-21,9.7,21h-2.47ZM243.07,102.46l-4.02-9.04-4.03,9.04h8.05Z"></path><path d="M252,90.04h2.47l7.58,15.83,7.55-15.83h2.47l-10.02,20.82-10.06-20.82Z"></path><path d="M292.29,109.68l-2.37-5.34h-9.72l-2.38,5.34h-2.47l9.73-21,9.7,21h-2.47ZM289.08,102.46l-4.02-9.04-4.03,9.04h8.05Z"></path><path d="M306.31,109.68h-2.28v-20.88l12.43,15.68v-14.44h2.28v20.85l-12.43-15.68v14.47Z"></path><path d="M346.42,103.81c-.6,1.2-1.4,2.24-2.42,3.1-1.02.87-2.22,1.54-3.61,2.04-1.39.49-2.87.74-4.46.74h-5.79v-19.64h5.79c1.58,0,3.07.24,4.46.74s2.59,1.17,3.61,2.04c1.02.87,1.83,1.9,2.42,3.1s.89,2.52.89,3.94-.3,2.74-.89,3.94ZM342.43,94.26c-1.74-1.46-3.89-2.19-6.44-2.19h-3.58v15.6h3.58c2.56,0,4.7-.73,6.44-2.19,1.78-1.5,2.67-3.36,2.67-5.6s-.89-4.11-2.67-5.6Z"></path><path d="M357.72,109.68v-19.64h13.15v1.88h-10.87v6.99h10.54v1.91h-10.54v6.99h10.87v1.88h-13.15Z"></path><path d="M394.31,100.25c-1.21,1-2.67,1.55-4.39,1.64l6.81,7.79h-3.06l-6.49-7.77h-2.66v7.77h-2.28v-19.64h7.1c1.97,0,3.62.55,4.96,1.66,1.38,1.14,2.07,2.56,2.07,4.26s-.69,3.15-2.07,4.29ZM389.68,99.98c1.28,0,2.34-.38,3.16-1.15.85-.79,1.27-1.76,1.27-2.91s-.4-2.09-1.2-2.83c-.8-.74-1.88-1.11-3.22-1.11h-5.14v8h5.14Z"></path><path d="M406.47,109.68v-19.64h2.28v19.64h-2.28Z"></path><path d="M434.97,109.68l-2.37-5.34h-9.72l-2.39,5.34h-2.47l9.73-21,9.7,21h-2.47ZM431.77,102.46l-4.02-9.04-4.04,9.04h8.05Z"></path></g></g></g></svg>