<svg xmlns="http://www.w3.org/2000/svg" id="Capa_2" data-name="Capa 2" viewBox="0 0 2834.65 1545.37"><defs><style>      .cls-1 {        fill: #fff;      }      .cls-2 {        fill: #ff0;      }      .cls-3 {        fill: red;      }      .cls-4 {        stroke: #000;        stroke-miterlimit: 10;        stroke-width: 27.74px;      }    </style></defs><g id="Capa_1-2" data-name="Capa 1"><g><g><path class="cls-3" d="M2793.87,890c-16.1-41.19-40.52-76.49-72.58-104.92-1.37-1.21-2.77-2.4-4.17-3.58-15.89-34.6-38.03-64.63-66-89.43-15.88-14.08-33.52-26.39-52.85-36.95v-103.55c0-49.54-7.82-94.67-23.25-134.13-16.1-41.19-40.52-76.49-72.58-104.92-1.37-1.22-2.78-2.4-4.17-3.59-15.89-34.59-38.03-64.62-65.99-89.42-62.98-55.85-153.48-84.17-269-84.17-53.86,0-163.54,12.4-206.12,31.1-17.79,7.81-29.27,25.4-29.27,44.82v78.15c-14.76-26.47-33.51-49.89-56.07-69.89-62.98-55.85-153.48-84.17-269-84.17-43.66,0-124,8.15-175.55,21.2-5.42-4.1-10.91-6.45-15.35-7.8-2.86-.87-5.79-1.56-8.73-2.05-8.11-1.35-16.25-1.76-24.39-1.22,6.31-14.09,5.47-29.97-1.49-43.03-.24-9.33-3.14-18.58-8.64-26.55-8.23-12.4-19.17-17.82-26.92-20.16-2.86-.87-5.79-1.56-8.73-2.05-10.84-1.81-21.73-1.92-32.6-.36-11.65-7.61-26.03-11.16-41.51-9.47-3.21-9.02-8.01-17.28-14.29-24.43-14.14-16.14-34.52-22.79-54.55-17.76-20.23,5.09-35.32,20.92-39.8,41.57-7.56-5.92-17.62-11.74-30.58-14.5-10.55-2.25-21.27-1.94-31.35.69-10.95-7.97-24.5-12.69-39.48-12.93-30.08-.45-55.39,17.87-65.07,44.6-49.52,8.87-94.52,26.28-134.16,51.96-26.69,17.29-51,38.39-72.77,63.05-7.76-16.78-24.74-28.43-44.44-28.43H254.75c-27.04,0-48.95,21.92-48.95,48.95v144.84c0,27.04,21.92,48.95,48.95,48.95h21.21v44.06c0,21.08,13.32,39.04,32,45.94l-93.48,135.22c-1.02,1.48-1.93,3.03-2.78,4.6H50.23c-27.04,0-48.95,21.92-48.95,48.95v523.88c0,27.04,21.92,48.95,48.95,48.95h21.21v44.06c0,27.04,21.92,48.95,48.95,48.95h186.44c27.04,0,48.95-21.92,48.95-48.95v-102.05h52.74c60.84,0,112.37-9.4,153.97-27.98v37.02c0,27.04,21.92,48.95,48.95,48.95h21.21v44.06c0,27.04,21.92,48.95,48.95,48.95h449.92c6.64,0,12.96-1.33,18.74-3.72,5.77,2.39,12.1,3.72,18.74,3.72h186.44c27.04,0,48.95-21.92,48.95-48.95v-45.16c3.33.71,6.77,1.1,10.31,1.1h21.21v44.06c0,27.04,21.92,48.95,48.95,48.95h186.44c27.04,0,48.95-21.92,48.95-48.95v-63.93c11.24,15.02,24.03,28.81,38.29,41.28,63.72,55.7,154.65,83.94,270.27,83.94,73.45,0,148.01-15.07,193.29-29.18,1.77-.55,3.47-1.23,5.14-1.96,8.96,11.45,22.9,18.82,38.56,18.82h186.44c27.04,0,48.95-21.92,48.95-48.95v-45.16c3.33.71,6.77,1.1,10.31,1.1h21.21v44.06c0,27.04,21.92,48.95,48.95,48.95h186.44c27.04,0,48.95-21.92,48.95-48.95v-261.94c0-49.54-7.82-94.67-23.25-134.13ZM932.27,842.9c-.07.04-.15.07-.22.11l.22-.1s0,0,0,0ZM917.02,850.35c3.1-.37,6.22-.99,9.32-1.94l.07-.02c5.8-1.65,11.6-3.3,17.39-4.99,4.09-1.2,8.07-2.56,11.92-4.08,29.4,14.64,60.82,25.04,94.17,31.15v128.8h-132.88v-148.92Z"></path><g><path class="cls-1" d="M463.53,346.35h-208.78v-144.84h477.66v77.04l-208.78,302h208.78v144.84H254.75v-77.04l208.78-302Z"></path><path class="cls-1" d="M1602.81,346.35v379.05h-186.44V216.15c31.59-13.87,131.74-26.97,186.44-26.97,209.55,0,315.87,100.15,315.87,274.27v261.94h-186.44v-261.94c0-77.81-33.13-117.1-129.43-117.1Z"></path><path class="cls-1" d="M1976.84,216.15c31.59-13.87,131.74-26.97,186.44-26.97,209.55,0,315.87,100.15,315.87,274.27v261.94h-186.44v-104.78h-129.43v104.78h-186.44V216.15ZM2292.71,463.45c0-77.81-33.13-117.1-129.43-117.1v129.43h129.43v-12.33Z"></path></g><g><path class="cls-2" d="M338.37,674.07c152.54,0,229.59,62.4,229.59,186.44s-77.04,186.44-229.59,186.44h-101.69v151H50.23v-523.88h288.14ZM338.37,902.12c25.42,0,38.52-13.87,38.52-41.6s-13.1-41.6-38.52-41.6h-101.69v83.21h101.69Z"></path><path class="cls-2" d="M797.9,674.07v379.04h263.48v144.84h-449.92v-523.88h186.44Z"></path><path class="cls-2" d="M1098.85,688.71c31.59-13.87,131.74-26.97,186.44-26.97,209.55,0,315.87,100.15,315.87,274.27v261.94h-186.44v-104.78h-129.43v104.78h-186.44v-509.25ZM1414.72,936.01c0-77.81-33.13-117.1-129.43-117.1v129.43h129.43v-12.33Z"></path><path class="cls-2" d="M1975.64,818.91c-96.3,0-144.84,39.29-144.84,117.1s48.54,117.1,120.18,117.1v-143.3h186.44v273.5c-47,14.64-116.33,26.96-178.74,26.96-209.55,0-318.95-100.15-318.95-274.27s110.94-274.27,320.49-274.27c62.4,0,137.91,12.33,161.79,26.97l-38.52,151c-16.95-9.24-61.63-20.8-107.86-20.8Z"></path><path class="cls-2" d="M2195.68,688.71c31.59-13.87,131.74-26.97,186.44-26.97,209.55,0,315.87,100.15,315.87,274.27v261.94h-186.44v-104.78h-129.43v104.78h-186.44v-509.25ZM2511.55,936.01c0-77.81-33.13-117.1-129.43-117.1v129.43h129.43v-12.33Z"></path></g><path d="M969.21,606.28c-.99.46-2.14,1.34-3.05.03-.8-1.15.34-1.89.98-2.64,2.02-2.4,4.51-4.27,6.91-6.25,19.68-16.21,40.27-31.02,63.25-42.32,17.43-8.56,35.57-14.89,54.69-18.4,21.55-3.96,43.35-3.99,65.14-4.32,12.86-.19,25.73.17,38.57-.76,10.73-.78,20.88,1.39,30.31,6.55,2.43,1.33,4.54,2.85,7.57,2.83,2.39-.02,4.46,1.35,6.05,3.38,1.92,2.47,3.71,4.99,4.91,7.9.65,1.57,1.35,2.46,2.62.32,1.8-3.03,3.71-5.99,5.66-8.93,7.76-11.69,17.43-21.59,28.37-30.33,12.62-10.09,27.1-16.84,41.67-23.42,16.27-7.35,32.65-14.47,48.41-22.88,9.38-5,19.23-8.81,29.11-12.61.62-.24,1.29-.79,2.31.39-17.13,8.5-34.13,16.94-51.13,25.38,8.87-.64,17.59-1.84,26.43-1.54-.88,1.25-2.16,1.2-3.31,1.37-7.8,1.16-15.61,2.29-23.42,3.41-3.42.49-6.71,1.41-9.71,3.16-11.77,6.85-22.98,14.53-33.8,22.78-18.71,14.26-35.69,30.4-51.39,47.9-.98,1.09-1.9,2.31-3.45,2.5-4.24.51-6.75,3.21-8.96,6.55-1.25,1.89-1.44,2.88,1.21,3.17,1.85.2,3.67.72,5.52.94,2.34.27,3.44,1.05,3.08,3.78-.51,3.91,1.06,5.99,4.74,6.76,1.79.37,2.43,1.24,2.53,2.9.14,2.26,1.34,4.27,3.25,5,3.58,1.38,6.28,3.17,8.21,6.76,1.7,3.15,5.25,3.69,8.91,2.48-1.54,5.41-1.55,5.44,3.74,6.67,3.64.84,7.3,1.61,10.96,2.35,6.49,1.3,12.95,3.32,19.57.57.89-.37,1.94-.22,2.26.98.39,1.42-.72,1.73-1.7,2.12-5.64,2.2-11.35,3.09-17.35,1.48-4.21-1.13-8.46-2.1-12.75-2.89-3.83-.7-7.53-2.5-11.61-1.5-1.08.27-1.59-.73-2.05-1.57-2.02-3.65-4.99-6.07-9.13-6.87-1.31-.25-1.96-.74-2.04-2.2-.15-2.79-1.87-4.72-4.37-5.51-2.18-.69-2.97-1.82-3.54-4-1.17-4.44-4.21-5.01-7.16-1.67-.66.75-1.29,1.93-2.5,1.24-1.03-.58-.5-1.67-.26-2.55.49-1.8,1.04-3.59,1.52-5.39.18-.66.51-1.65-.76-1.45-2.42.38-4.99.4-6.42,3.07-2.21,4.11-4.52,8.17-6.9,12.18-.66,1.11-.89,3.47-2.69,2.72-2-.83-.93-2.82-.4-4.38.06-.16-.07-.38-.15-.75-2.03.17-4.08.54-6.11.44-1.67-.08-3.21-1.4-2.87-3.01.34-1.64,1.88-.2,2.89-.17.17,0,.35-.15.67-.3-1.4-2.1-3.27-2.85-5.61-2.03-3.42,1.2-6.89,2.26-10.11,4.02-4.08,2.23-4.11,2.16-.39,4.61.2.13.24.5.43.91-1.55.23-2.99.44-4.5.67.5.73,1.7.4,1.67,1.37-.02.77-.85.78-1.39,1.03-.28.13-.57.28-.87.34-2.8.59-3.81,1.7-1.71,4.36,1.43,1.81,2.12,4.04,1.97,6.43-.05.86,0,1.68.64,2.32,2.44,2.52,2.53,5.56,1.88,8.73-.43,2.09-.21,4.15.22,6.18,1.23,5.88,3.55,11.75,3.57,17.63.03,7.23,3.45,11.26,9.04,14.48.72.41,1.34.98,2.05,1.42,5.54,3.44,11.35,4.36,17.54,1.88,1.63-.65,3.32-1.19,5-1.71,1.05-.33,2.14-.39,2.56.94.39,1.22-.57,1.6-1.43,2.02-2.06.99-4.22,1.81-6.13,3.03-4.34,2.77-8.89,3.2-13.73,1.74-4.62-1.39-8.94-3.27-12.42-6.79-2.78-2.81-5.81-5.36-9.2-7.39-1.59-.95-2.05-2.01-1.56-3.84.84-3.14.59-6.27-1.64-8.82-1.35-1.55-1.43-2.99-.83-4.84,1.07-3.3,1.14-6.56-1.42-9.35-.92-1-.72-2.06-.31-3.19,1.65-4.5.4-8.56-1.95-12.44-1.07-1.77-2.25-3.22-4.71-2.66-1.4.32-2.43-.55-3.06-1.7-1.46-2.66-3.76-3.31-6.57-3.09-1.44.11-2.91.05-4.35-.1-2.23-.24-4.12-1.12-5.65-2.91-1.02-1.21-.69-3.59-2.83-3.7-1.71-.09-3,1.3-4.52,1.94-1.34.56-2.6,1.28-3.93,1.87-2.34,1.04-4.64.8-6.91-.29-2.77-1.33-6.23-.14-7.57,2.55-.2.4-.4.8,0,1.1,1.99,1.56.31,2.74-.42,3.95-4.88,8.16-10.79,15.47-17.73,21.97-1.48,1.39-2.68,2.91-1.88,5.19.33.94.2,2.21-1.06,2.08-4.59-.49-6.01,3.05-7.76,6.01-1.3,2.2-1.07,5.6-5.02,5.45-.57-.02-1.52.98-1.72,1.67-.73,2.57-1.44,4.91-4.92,4.54-.46-.05-1.1.88-1.54,1.44-3.37,4.32-7.28,8.27-9.23,13.55-.21.56-.48,1.55-1.06,1.32-2.38-.94-2.87,1.17-3.75,2.31-4.17,5.43-8.5,10.75-11.88,16.75-.51.9-1.01,1.89-2.34,1.64-1.4-.26-1.67-1.37-1.9-2.53-.5-2.58-.14-4.88,1.63-6.99,4.12-4.93,8.14-9.95,12.21-14.93.95-1.16,1.78-2.18-.39-2.99-1.07-.4-2.95-.29-2.82-1.83.11-1.32,1.96-1.25,3.03-1.78.83-.41,1.74-.83,2.64-.9,2.71-.2,4.46-1.75,6.2-3.66,3.46-3.81,5.31-8.94,9.85-11.83-.24-5.01,5.22-4.73,7.3-7.72,1-1.44.53-3.46,2.2-4.39,5.77-3.19,9.25-8.84,14.04-13.09.45-.4,1.52-1.18.46-1.65-2.34-1.06-.91-2.49-.45-3.6,1.79-4.35,3.36-8.72,3.46-13.49.02-.8.47-1.78-.32-2.34-.98-.69-1.76.29-2.49.74-10.02,6.2-21.2,9.99-31.67,15.25-5.44,2.73-10.62,2-15.93.1-1.17-.42-2.37-.82-3.44-1.44-7.15-4.15-13.78-3.16-20.26,1.62-7.03,5.17-15.26,5.51-23.53,5.21-1.7-.06-4.56,0-4.7-1.9-.11-1.53,2.82-1.41,4.39-2.07.28-.12.62-.12.9-.24,3.93-1.68,8.21-2.71,11.69-6.01-2.36-.97-4.37-1.1-6.43-.72-6.02,1.1-12.01,2.45-18.07,3.21-4.19.53-7.54,1.8-9.84,5.55-.84,1.36-2.17,2.6-3.56,3.42-6.4,3.77-11.35,9.38-17.42,13.55-2.51,1.72-4.7,3.76-6.08,6.54-.43.87-1.01,1.51-2.1,1.63-4.68.5-7.43,3.3-8.79,7.62-.32,1.03-.88,1.52-1.92,1.72-5.32.99-9.6,4.01-13.25,7.7-2.7,2.73-5.09,5.3-9.4,4.74-1.02-.13-2.17.61-3.23,1-11.89,4.38-23.24,10.06-35.14,14.39-7.21,2.62-14.9,3.83-21.78,7.39-4.9,2.54-10.03,4.51-15.32,6.06-5.87,1.72-11.76,3.39-17.65,5.06-.96.27-2.17.89-2.72-.45-.61-1.49.76-1.96,1.76-2.44,1.21-.59,2.46-1.12,3.73-1.57,23.11-8.15,45.75-17.47,68.43-26.73,4.71-1.92,9.43-3.81,14.01-6.01,2.77-1.33,2.69-2.09.35-3.93-.47-.37-1.22-.63-1-1.38.26-.89,1.16-.74,1.84-.82,4.13-.47,8.24-.94,11.91-3.23,3.55-2.21,3.6-2.3.68-5.3-.19-.19-.22-.54-.33-.83,1.12-.88,2.24-.21,3.32-.18,2.61.06,5.2.09,7.5-1.47,3.67-2.49,3.72-2.92.74-6.09-.17-.18-.14-.53-.21-.87,1.7-.62,3.11.29,4.58.59,3.22.65,5.35-.41,6.19-3.56.41-1.52,1.28-2.26,2.51-2.9,2.83-1.47,5.63-2.98,8.52-4.51q-2.86-2.75.67-4.33c.85-.38,1.73-.72,2.55-1.15,3.16-1.66,6.02-3.67,7.98-6.76.94-1.49,1-2.52-1.16-2.66-2.89-.18-5.73-.45-8.63.39-12.86,3.69-25.77,7.25-38.66,10.84-4.4,1.23-8.87,2.18-13.43,2.61-.8.08-1.95.42-2.23-.5-.36-1.18.93-1.46,1.74-1.79,1.44-.58,2.94-1.01,4.42-1.49,8.88-2.88,17.79-5.7,26.65-8.65,4.89-1.63,7.82-5.34,7.82-9.94-1.97.96-3.78,1.88-5.63,2.73ZM1324.18,493.55c-21.11,3.71-67.89,43.13-70.63,59.93,21.35-23.01,44.27-43.3,70.63-59.93Z"></path><path d="M1281.64,130.09c-.94-.09-2.48.03-2.5-1.27-.03-1.74,1.7-1.33,2.73-1.36,5.01-.16,10.01-.19,15.01.62,5.25.85,10.21,2.85,15.46,3.66-9.77-5.31-20.3-7.08-31.3-6.66,18.46-5.83,36.02-2.79,53.09,5.33-16.77-11.39-35.08-12.71-54.34-7.81.27-2.43,1.08-3.73,2.56-4.66,14.03-8.87,29.43-11.31,46.03-9.35-.51-.69-.63-1.05-.85-1.11-.84-.26-1.7-.46-2.57-.6-13.31-2.22-25.83.45-37.83,6.17-6.49,3.09-6.45,3.16-7.8-4.02-1.66-8.81-7.4-12.85-16.26-11.44-5.54.88-11.05,1.98-16.62,2.57-5.2.55-10.68,1.8-15.21-2.32-3.41-3.1-7.31-4.94-11.96-5.08-2.99-.09-4.19-1.67-3.95-4.6.41-5.04-.39-10.02-.83-15.02-.55-6.17-2.55-11.84-6.69-16.56-1.48-1.69-3.3-3.16-5.77-2.54-2.42.61-3.58,2.56-3.99,4.85-.39,2.17-.65,4.38-.72,6.58-.13,4.72-.06,9.43-.81,14.13-1.78,11.06-5.78,14.75-16.72,14.68-8.34-.06-16.11,1.27-22.74,6.92-2.39,2.04-5.51,2.67-8.68,2.96-8.74.8-14.81-3.68-20.31-9.71-5.18-5.68-10.49-11.21-18.56-12.92-11.36-2.42-21.58,5.38-22.06,16.94-.5,12.12,3.44,22.33,12.71,30.3,2.57,2.21,5.22,4.37,8.04,6.23,2.68,1.77,2.61,3.07.52,5.44-4.56,5.15-10.83,7-16.79,9.47-20.7,8.55-41.76,15.08-64.54,15.68-19.28.51-38.12,4.33-55.79,12.62-29.56,13.87-50.77,36.47-65.41,65.02-28.6,55.79-37.15,114.64-23.86,176.17,2.54,11.75.17,21.36-7.82,30.2-4.38,4.85-9.95,7.29-15.57,9.82-20.71,9.33-42.86,11.71-65.15,13.04-24,1.43-48.1,1.39-71.98,4.69-12.79,1.77-25.3,4.35-36.87,10.44-3.08,1.62-5.9,3.54-8.44,5.68-3.82,6.17-6.27,13.34-5.25,20.6,1.41,10.09,8.9,20.16,15.35,27.76,11.94,14.06,26.75,23.76,43.57,29,36.51,11.37,77.56,5.25,115.2-1.78,20.5-3.82,40.86-8.34,61.37-12.09,19.5-3.57,40.31-7.77,60.2-6.12,11.47.95,22.81,3.77,33.14,8.63-5.84-5.25-12.71-9.27-20.83-11.76-14.73-4.52-29.75-4.07-44.74-1.63-27.53,4.47-54.85,10.16-82.48,14.05-30.89,4.35-61.84,7.54-93.09,4.92-9.88-.83-19.56-2.46-28.82-6.41-8.63-3.68-15.97-8.99-22.36-15.7-13-13.66-8.95-29.69,8.92-35.05,10.97-3.29,22.36-3.95,33.72-4.31,23.46-.76,46.95.75,70.41-.92,12.67-.91,25.33-1.94,37.49-5.97,7.55-2.5,15.15-3.38,23.12-2.24,4.49.64,7.87,2.3,10.07,6.19,1.45,2.57,3.5,4.86,6.3,5.21,10.42,1.32,20.61,4.17,31.15,4.7.44.02.88-.13,1.32-.16,16.65-1.37,33.34-1.74,49.95.05,13.32,1.44,26.58,3.57,39.78,5.88,5.86,1.02,11.75.81,17.58,1.69,1.95.3,2.12-1.27,2.36-2.51.99-5.21-1.02-9.25-5.13-12.35-2.94-2.21-5.93-4.35-8.9-6.52,4.37.15,8.62.6,12.06,3.53,1.65,1.41,3.78,1.87,5.86,1.5,7.59-1.36,15.28-1.34,22.91-2.08,16.79-1.65,33.6-1.87,50.43-1.36,3.23.1,6.51,1.06,9.66-.07,7.49-2.7,15.51-.24,23.07-2.6,4.92-1.54,10.2-.46,15.31-.85,2.62-.2,3.01-1.02,3.23-2.83.46-3.7-2.11-7.6-6.68-9.47-5.75-2.35-11.29-5.07-16.75-8.04-4.18-2.27-8.61-3.44-13.63-2.44-10.82,2.16-21.35,5.86-32.59,5.92-5.6.03-11.19.74-16.78,1.06-7.37.42-14.73.95-22.11,1.07-6.93.11-9.95-3.51-9.28-10.39.28-2.89,1.7-5.32,2.93-7.83,6.43-13.05,9.26-26.71,6.97-41.24-.52-3.27-.38-6.48.9-9.58,1.95-4.72,2.71-9.62,2.52-14.72-.44-12.05,4.28-21.44,14.47-28.1,8.27-5.42,14.8-12.5,20.01-20.96,6.3-10.24,13.2-20.08,24.91-24.95,3.19-1.32,5.13-5.98,8.81-4.76,3.21,1.06,5.02,4.81,7.32,7.5,3.67,4.3,7.7,4.9,12.55,1.82,1.98-1.26,3.69-2.95,5.62-4.31,3.68-2.58,6.22-2.02,8.23,1.92,1.65,3.24,4.29,5.35,6.89,7.78,3.34,3.11,8.33,2.21,11.2,5.85.7.88,1.76-.49,2.42-1.26,3.36-3.91,5.6-8.3,5.89-13.55.06-1.17.22-2.5,1.75-2.7,1.35-.18,1.98.99,1.98,1.93-.03,8.31,8.34,11.13,11.36,17.44.72,1.51,2.36.74,3.62.41,5.69-1.53,12.76-11.51,12.19-17.89-.54-6.01-1.26-12.08-2.72-17.92-3.07-12.29-13.86-16.55-24.76-10.19-10.44,6.1-21.84.07-22.75-12.02-.57-7.58.17-15.07,1.92-22.42,1.97-8.3,2.29-17.45,6.71-24.62,6.62-10.75,14.57-21.11,25.58-27.74,11.13-6.71,21.4-14.64,32.59-21.22,7.47-4.4,13.79-10.08,17.52-18.25,1.54-3.37,4.12-6.09,6.8-8.67,5.31-5.1,9.3-11.14,11.52-18.13,1.07-3.37,2.76-3.61,5.56-2.68,8.21,2.74,15.69,6.73,22.39,12.27,3.55,2.93,6.65,6.32,10.37,10.37-.2-3.03-1.36-4.49-2.52-5.66-7.84-7.97-16.5-14.77-27.31-18.35-1.4-.46-2.83-.84-4.22-1.35-.95-.35-2.13-.68-1.96-2.02.2-1.63,1.55-1.51,2.73-1.53.74-.01,1.49-.02,2.21.08,11.58,1.61,22.39,5.2,31.82,12.38,1.43,1.09,2.81,2.5,5.78,2.74-6.38-6.03-12.91-10.08-20.27-12.84-5.97-2.23-12.13-3.68-18.49-4.3Z"></path><path class="cls-4" d="M1369.3,429.81c-18.59-.02-18.42,0-20.5,18.66-12.92,115.95-71.78,199.79-176.68,250.69-33.71,16.36-69.96,24.58-107.43,26.2-8.91.38-12.28,3.19-11.47,12.05.58,6.41.14,12.93.01,19.39-.07,3.46-.25,7.18-5.03,7.39-5.41.23-5.78-3.81-5.87-7.66-.16-6.81-.4-13.63-.04-20.42.39-7.17-1.99-10.2-9.71-10.63-83.26-4.67-153.13-38.15-209.05-99.74-43.66-48.09-68.77-104.98-75.55-169.65-2.73-26.01-2.27-26.06-28.13-26.3-2.04-.02-4.08-.09-6.13-.13-3.59-.07-5.89-1.65-5.93-5.47-.04-3.96,2.6-5.33,6-5.41,7.15-.17,14.31-.5,21.44-.11,7.66.42,10.74-2.26,11.25-10.35,2.83-45.47,13.93-88.91,36.69-128.51,53.46-93,133.6-145.56,240.78-155.98,1.35-.13,2.72-.14,4.08-.27q14.17-1.41,14.21-16.08c.02-5.79.04-11.57.16-17.36.08-3.5,1.58-5.98,5.46-5.92,3.85.06,5.32,2.49,5.35,6.04.06,7.49.42,14.99.05,22.46-.34,6.92,2.4,9.69,9.32,10.12,34.91,2.18,68.97,8.74,101.02,23.05,105.8,47.26,167.03,128.47,183.81,243.13.98,6.72,1.71,13.54,1.74,20.32.03,7.2,3.32,9.58,10.07,9.3,7.14-.29,14.3-.06,21.44.06,4.1.07,7.6,1.17,7.3,6.33-.28,4.87-3.92,4.8-7.42,4.8-3.74,0-7.49,0-11.23-.01ZM1053.32,598.14c0,29.28-.03,58.56.01,87.85.02,12.15.87,13.03,12.66,12.1,23.15-1.84,45.88-5.96,67.98-13.29,107.04-35.53,181.06-132.18,187.9-245.02.47-7.72-2.13-10.14-9.7-10.12-59.93.2-119.85.21-179.78-.01-7.47-.03-10.56,2.4-12.28,9.95-7.01,30.82-26.45,50.05-57.19,57.12-7.69,1.77-9.78,5.28-9.72,12.57.27,29.62.11,59.24.11,88.87ZM873.75,429.79c-27.23,0-54.46.02-81.7,0-21.04-.02-18.84-1.25-17.25,18.54,10.71,133.54,122.1,242.63,255.24,249.93,9.48.52,12.39-2.38,12.34-11.85-.35-58.55-.33-117.1,0-175.65.05-8.69-2.59-12.44-11.34-14.54-29.92-7.19-48.54-26.64-55.46-56.39-1.93-8.28-5.32-10.25-12.97-10.17-29.61.31-59.23.12-88.84.12ZM1053.33,250.25c0,29.94.14,59.89-.11,89.83-.05,6.74,1.48,10.04,8.97,11.72,30.66,6.89,50.34,25.99,57.83,56.56,1.96,8.02,5.47,10.51,13.2,10.31,15.64-.39,31.3-.11,46.95-.11,43.56,0,87.11-.2,130.66.15,9.21.07,12.31-3.13,10.86-12.04-1.15-7.04-1.3-14.23-2.32-21.29-18.84-129.52-124.71-226.55-255.39-234.65-9.4-.58-10.85,2.76-10.78,10.71.28,29.6.11,59.21.12,88.81ZM1042.17,251.07c0-30.3-.2-60.59.14-90.88.09-7.65-2.09-9.81-9.94-9.39-65.18,3.46-121.83,27.57-169.64,71.4-54.68,50.12-83.72,113-88.94,187.02-.62,8.75,3.66,9.4,10.28,9.39,59.91-.09,119.82-.14,179.73.06,6.93.02,10.02-1.99,11.67-9.22,6.99-30.77,26.33-50.24,56.98-57.34,8.47-1.96,9.93-5.73,9.85-13.2-.3-29.27-.12-58.55-.13-87.82ZM1021.94,429.79c-3.73,0-7.47.17-11.19-.04-7.78-.43-9.57,2.86-7.04,9.94,3.31,9.27,8.78,16.89,16.79,22.42,5.51,3.81,11.88,9.37,18.4,6.42,6.54-2.95,2.23-11.02,3.27-16.74.12-.66.02-1.35.02-2.03-.19-22.67,2.27-19.75-20.25-19.97ZM1053.3,449.77c0,3.39-.08,6.78.01,10.16.27,9.78,2.64,11.34,11.81,7.66,10.1-4.06,17.92-10.83,23.3-20.29,8.15-14.31,6.39-17.46-9.64-17.48-1.69,0-3.39,0-5.08,0-22.29.12-20.32-2.37-20.41,19.95ZM1072.62,418.54c3.73,0,7.47-.18,11.18.03,8.98.51,10.67-3.5,7.54-11.24-4.81-11.91-13.02-20.5-24.61-25.83-11.11-5.11-13.34-3.56-13.43,8.94-.02,3.05-.02,6.1,0,9.15.15,20.61-2.18,18.88,19.32,18.94ZM1042.19,398.83c0-3.72-.17-7.46.03-11.17.44-8.08-2.68-10.66-10.33-7.23-9.42,4.23-18.21,9.33-23.21,18.8-2.76,5.21-8.47,10.82-5.17,16.6,3.18,5.56,10.58,1.87,16.05,2.71.99.15,2.03.03,3.04.02,21.72-.11,19.44,1.81,19.58-19.72Z"></path><path class="cls-2" d="M1369.3,429.81c-18.59-.02-18.42,0-20.5,18.66-12.92,115.95-71.78,199.79-176.68,250.69-33.71,16.36-69.96,24.58-107.43,26.2-8.91.38-12.28,3.19-11.47,12.05.58,6.41.14,12.93.01,19.39-.07,3.46-.25,7.18-5.03,7.39-5.41.23-5.78-3.81-5.87-7.66-.16-6.81-.4-13.63-.04-20.42.39-7.17-1.99-10.2-9.71-10.63-83.26-4.67-153.13-38.15-209.05-99.74-43.66-48.09-68.77-104.98-75.55-169.65-2.73-26.01-2.27-26.06-28.13-26.3-2.04-.02-4.08-.09-6.13-.13-3.59-.07-5.89-1.65-5.93-5.47-.04-3.96,2.6-5.33,6-5.41,7.15-.17,14.31-.5,21.44-.11,7.66.42,10.74-2.26,11.25-10.35,2.83-45.47,13.93-88.91,36.69-128.51,53.46-93,133.6-145.56,240.78-155.98,1.35-.13,2.72-.14,4.08-.27q14.17-1.41,14.21-16.08c.02-5.79.04-11.57.16-17.36.08-3.5,1.58-5.98,5.46-5.92,3.85.06,5.32,2.49,5.35,6.04.06,7.49.42,14.99.05,22.46-.34,6.92,2.4,9.69,9.32,10.12,34.91,2.18,68.97,8.74,101.02,23.05,105.8,47.26,167.03,128.47,183.81,243.13.98,6.72,1.71,13.54,1.74,20.32.03,7.2,3.32,9.58,10.07,9.3,7.14-.29,14.3-.06,21.44.06,4.1.07,7.6,1.17,7.3,6.33-.28,4.87-3.92,4.8-7.42,4.8-3.74,0-7.49,0-11.23-.01ZM1053.32,598.14c0,29.28-.03,58.56.01,87.85.02,12.15.87,13.03,12.66,12.1,23.15-1.84,45.88-5.96,67.98-13.29,107.04-35.53,181.06-132.18,187.9-245.02.47-7.72-2.13-10.14-9.7-10.12-59.93.2-119.85.21-179.78-.01-7.47-.03-10.56,2.4-12.28,9.95-7.01,30.82-26.45,50.05-57.19,57.12-7.69,1.77-9.78,5.28-9.72,12.57.27,29.62.11,59.24.11,88.87ZM873.75,429.79c-27.23,0-54.46.02-81.7,0-21.04-.02-18.84-1.25-17.25,18.54,10.71,133.54,122.1,242.63,255.24,249.93,9.48.52,12.39-2.38,12.34-11.85-.35-58.55-.33-117.1,0-175.65.05-8.69-2.59-12.44-11.34-14.54-29.92-7.19-48.54-26.64-55.46-56.39-1.93-8.28-5.32-10.25-12.97-10.17-29.61.31-59.23.12-88.84.12ZM1053.33,250.25c0,29.94.14,59.89-.11,89.83-.05,6.74,1.48,10.04,8.97,11.72,30.66,6.89,50.34,25.99,57.83,56.56,1.96,8.02,5.47,10.51,13.2,10.31,15.64-.39,31.3-.11,46.95-.11,43.56,0,87.11-.2,130.66.15,9.21.07,12.31-3.13,10.86-12.04-1.15-7.04-1.3-14.23-2.32-21.29-18.84-129.52-124.71-226.55-255.39-234.65-9.4-.58-10.85,2.76-10.78,10.71.28,29.6.11,59.21.12,88.81ZM1042.17,251.07c0-30.3-.2-60.59.14-90.88.09-7.65-2.09-9.81-9.94-9.39-65.18,3.46-121.83,27.57-169.64,71.4-54.68,50.12-83.72,113-88.94,187.02-.62,8.75,3.66,9.4,10.28,9.39,59.91-.09,119.82-.14,179.73.06,6.93.02,10.02-1.99,11.67-9.22,6.99-30.77,26.33-50.24,56.98-57.34,8.47-1.96,9.93-5.73,9.85-13.2-.3-29.27-.12-58.55-.13-87.82ZM1021.94,429.79c-3.73,0-7.47.17-11.19-.04-7.78-.43-9.57,2.86-7.04,9.94,3.31,9.27,8.78,16.89,16.79,22.42,5.51,3.81,11.88,9.37,18.4,6.42,6.54-2.95,2.23-11.02,3.27-16.74.12-.66.02-1.35.02-2.03-.19-22.67,2.27-19.75-20.25-19.97ZM1053.3,449.77c0,3.39-.08,6.78.01,10.16.27,9.78,2.64,11.34,11.81,7.66,10.1-4.06,17.92-10.83,23.3-20.29,8.15-14.31,6.39-17.46-9.64-17.48-1.69,0-3.39,0-5.08,0-22.29.12-20.32-2.37-20.41,19.95ZM1072.62,418.54c3.73,0,7.47-.18,11.18.03,8.98.51,10.67-3.5,7.54-11.24-4.81-11.91-13.02-20.5-24.61-25.83-11.11-5.11-13.34-3.56-13.43,8.94-.02,3.05-.02,6.1,0,9.15.15,20.61-2.18,18.88,19.32,18.94ZM1042.19,398.83c0-3.72-.17-7.46.03-11.17.44-8.08-2.68-10.66-10.33-7.23-9.42,4.23-18.21,9.33-23.21,18.8-2.76,5.21-8.47,10.82-5.17,16.6,3.18,5.56,10.58,1.87,16.05,2.71.99.15,2.03.03,3.04.02,21.72-.11,19.44,1.81,19.58-19.72Z"></path><path class="cls-3" d="M577.92,1185.26l2212.14-175.56-2.51-5.94c-2.7-8.62-4.57-17.23-5.66-25.85l-2203.97,199.43v7.92Z"></path><path class="cls-3" d="M300.66,1202.43l-261.24,23.64c-.11.66-.24,1.3-.36,1.96l261.6-20.76v-4.84Z"></path><polygon class="cls-3" points="884.45 1013.75 35.18 931.01 29.18 964.72 884.45 1038.51 884.45 1013.75"></polygon><path class="cls-3" d="M1089.46,1033.72v22.48l1683.89,145.28c.38-1.21.78-2.42,1.19-3.61l-1685.08-164.15Z"></path></g><rect class="cls-3" y="1369.6" width="2834.65" height="175.77" rx="66.44" ry="66.44"></rect><g><path class="cls-1" d="M114.4,1494.91l-.12-54.13-26.83,44.79h-6.77l-26.83-44.1v53.43h-14.47v-81.66h12.48l32.43,54.13,31.85-54.13h12.48l.12,81.66h-14.35Z"></path><path class="cls-1" d="M201.42,1476.01h-40.83l-8.05,18.9h-15.63l36.75-81.66h14.93l36.86,81.66h-15.86l-8.17-18.9ZM196.4,1464.11l-15.4-35.7-15.28,35.7h30.68Z"></path><path class="cls-1" d="M306.05,1413.25v81.66h-12.48l-45.03-55.29v55.29h-15.05v-81.66h12.48l45.03,55.29v-55.29h15.05Z"></path><path class="cls-1" d="M386.89,1482.2v12.71h-61.24v-81.66h59.61v12.71h-44.44v21.23h39.43v12.48h-39.43v22.51h46.08Z"></path><path class="cls-1" d="M399.78,1492.99c-4.39-2.06-7.99-4.96-10.79-8.69l8.63-10.38c4.51,6.22,9.91,9.33,16.21,9.33,8.48,0,12.71-5.02,12.71-15.05v-42.23h-29.05v-12.71h44.21v54.13c0,9.57-2.33,16.74-7,21.52-4.67,4.78-11.51,7.17-20.53,7.17-5.21,0-10.01-1.03-14.41-3.09Z"></path><path class="cls-1" d="M476.25,1490.65c-6.69-3.61-11.94-8.63-15.75-15.05-3.81-6.42-5.72-13.59-5.72-21.52s1.91-15.11,5.72-21.52c3.81-6.42,9.06-11.43,15.75-15.05,6.69-3.62,14.19-5.42,22.51-5.42s15.82,1.81,22.51,5.42c6.69,3.62,11.94,8.61,15.75,14.99,3.81,6.38,5.72,13.57,5.72,21.58s-1.91,15.2-5.72,21.58c-3.81,6.38-9.06,11.37-15.75,14.99-6.69,3.62-14.19,5.43-22.51,5.43s-15.83-1.81-22.51-5.43ZM513.46,1479.1c4.35-2.45,7.78-5.87,10.27-10.26,2.49-4.39,3.73-9.31,3.73-14.76s-1.25-10.36-3.73-14.76c-2.49-4.39-5.91-7.82-10.27-10.27-4.36-2.45-9.26-3.67-14.7-3.67s-10.34,1.23-14.7,3.67c-4.36,2.45-7.78,5.87-10.26,10.27-2.49,4.39-3.73,9.31-3.73,14.76s1.24,10.36,3.73,14.76c2.49,4.39,5.91,7.82,10.26,10.26,4.35,2.45,9.25,3.67,14.7,3.67s10.34-1.22,14.7-3.67Z"></path><path class="cls-1" d="M586.36,1413.25h15.17v81.66h-15.17v-81.66Z"></path><path class="cls-1" d="M693.8,1413.25v81.66h-12.48l-45.03-55.29v55.29h-15.05v-81.66h12.48l45.03,55.29v-55.29h15.05Z"></path><path class="cls-1" d="M729.96,1426.09h-27.06v-12.83h69.29v12.83h-27.06v68.82h-15.17v-68.82Z"></path><path class="cls-1" d="M842.53,1482.2v12.71h-61.24v-81.66h59.61v12.71h-44.44v21.23h39.43v12.48h-39.43v22.51h46.08Z"></path><path class="cls-1" d="M912.52,1453.15h14.35v32.55c-4.2,3.34-9.1,5.91-14.7,7.7-5.6,1.79-11.36,2.68-17.26,2.68-8.32,0-15.83-1.81-22.51-5.43-6.69-3.61-11.94-8.61-15.75-14.99-3.81-6.38-5.72-13.57-5.72-21.58s1.91-15.2,5.72-21.58c3.81-6.38,9.08-11.37,15.81-14.99,6.73-3.62,14.29-5.42,22.69-5.42,6.84,0,13.07,1.13,18.66,3.38,5.6,2.26,10.3,5.56,14.12,9.91l-9.57,9.33c-6.22-6.22-13.73-9.33-22.51-9.33-5.76,0-10.87,1.21-15.34,3.62-4.47,2.41-7.97,5.79-10.5,10.15-2.53,4.36-3.79,9.33-3.79,14.93s1.26,10.34,3.79,14.7c2.53,4.36,6.03,7.78,10.5,10.26,4.47,2.49,9.55,3.73,15.22,3.73,6.38,0,11.98-1.4,16.8-4.2v-25.43Z"></path><path class="cls-1" d="M997.91,1494.91l-16.68-23.91c-.7.08-1.75.12-3.15.12h-18.43v23.8h-15.17v-81.66h33.6c7.08,0,13.24,1.17,18.49,3.5,5.25,2.33,9.27,5.68,12.07,10.03,2.8,4.36,4.2,9.53,4.2,15.51s-1.5,11.43-4.49,15.86c-3,4.43-7.29,7.74-12.89,9.91l18.78,26.83h-16.33ZM992.43,1430.29c-3.42-2.8-8.44-4.2-15.05-4.2h-17.73v32.55h17.73c6.61,0,11.63-1.42,15.05-4.26,3.42-2.84,5.13-6.86,5.13-12.07s-1.71-9.22-5.13-12.02Z"></path><path class="cls-1" d="M1080.38,1476.01h-40.83l-8.05,18.9h-15.63l36.75-81.66h14.93l36.86,81.66h-15.86l-8.17-18.9ZM1075.36,1464.11l-15.4-35.7-15.28,35.7h30.68Z"></path><path class="cls-1" d="M1112.46,1413.25h35.7c8.71,0,16.45,1.69,23.21,5.08,6.77,3.38,12.01,8.16,15.75,14.35,3.73,6.18,5.6,13.32,5.6,21.41s-1.87,15.22-5.6,21.41c-3.73,6.18-8.98,10.96-15.75,14.35-6.77,3.38-14.5,5.08-23.21,5.08h-35.7v-81.66ZM1147.45,1482.08c5.99,0,11.26-1.15,15.81-3.44,4.55-2.29,8.05-5.56,10.5-9.8,2.45-4.24,3.68-9.16,3.68-14.76s-1.23-10.52-3.68-14.76c-2.45-4.24-5.95-7.5-10.5-9.8-4.55-2.29-9.82-3.44-15.81-3.44h-19.83v55.99h19.83Z"></path><path class="cls-1" d="M1222.11,1490.65c-6.69-3.61-11.94-8.63-15.75-15.05-3.81-6.42-5.72-13.59-5.72-21.52s1.91-15.11,5.72-21.52c3.81-6.42,9.06-11.43,15.75-15.05,6.69-3.62,14.19-5.42,22.51-5.42s15.82,1.81,22.51,5.42c6.69,3.62,11.94,8.61,15.75,14.99,3.81,6.38,5.72,13.57,5.72,21.58s-1.91,15.2-5.72,21.58c-3.81,6.38-9.06,11.37-15.75,14.99-6.69,3.62-14.19,5.43-22.51,5.43s-15.83-1.81-22.51-5.43ZM1259.32,1479.1c4.35-2.45,7.78-5.87,10.27-10.26,2.49-4.39,3.73-9.31,3.73-14.76s-1.25-10.36-3.73-14.76c-2.49-4.39-5.91-7.82-10.27-10.27-4.36-2.45-9.26-3.67-14.7-3.67s-10.34,1.23-14.7,3.67c-4.36,2.45-7.78,5.87-10.26,10.27-2.49,4.39-3.73,9.31-3.73,14.76s1.24,10.36,3.73,14.76c2.49,4.39,5.91,7.82,10.26,10.26,4.35,2.45,9.25,3.67,14.7,3.67s10.34-1.22,14.7-3.67Z"></path><path class="cls-1" d="M1332.23,1413.25h35.7c8.71,0,16.45,1.69,23.21,5.08,6.77,3.38,12.01,8.16,15.75,14.35,3.73,6.18,5.6,13.32,5.6,21.41s-1.87,15.22-5.6,21.41c-3.73,6.18-8.98,10.96-15.75,14.35-6.77,3.38-14.5,5.08-23.21,5.08h-35.7v-81.66ZM1367.22,1482.08c5.99,0,11.26-1.15,15.81-3.44,4.55-2.29,8.05-5.56,10.5-9.8,2.45-4.24,3.68-9.16,3.68-14.76s-1.23-10.52-3.68-14.76c-2.45-4.24-5.95-7.5-10.5-9.8-4.55-2.29-9.82-3.44-15.81-3.44h-19.83v55.99h19.83Z"></path><path class="cls-1" d="M1487.49,1482.2v12.71h-61.24v-81.66h59.61v12.71h-44.45v21.23h39.43v12.48h-39.43v22.51h46.08Z"></path><path class="cls-1" d="M1547.39,1490.65c-6.65-3.61-11.86-8.61-15.63-14.99-3.77-6.38-5.66-13.57-5.66-21.58s1.91-15.2,5.72-21.58c3.81-6.38,9.04-11.37,15.69-14.99,6.65-3.62,14.09-5.42,22.34-5.42,6.69,0,12.79,1.17,18.31,3.5,5.52,2.33,10.19,5.72,14,10.15l-9.8,9.21c-5.91-6.37-13.18-9.57-21.81-9.57-5.6,0-10.62,1.23-15.05,3.67-4.43,2.45-7.9,5.85-10.38,10.21-2.49,4.36-3.73,9.29-3.73,14.82s1.24,10.46,3.73,14.81c2.49,4.36,5.95,7.76,10.38,10.21,4.43,2.45,9.45,3.67,15.05,3.67,8.63,0,15.9-3.22,21.81-9.68l9.8,9.33c-3.81,4.43-8.5,7.81-14.06,10.15-5.56,2.33-11.69,3.5-18.37,3.5-8.24,0-15.69-1.81-22.34-5.43Z"></path><path class="cls-1" d="M1628.28,1490.65c-6.69-3.61-11.94-8.63-15.75-15.05-3.81-6.42-5.72-13.59-5.72-21.52s1.91-15.11,5.72-21.52c3.81-6.42,9.06-11.43,15.75-15.05,6.69-3.62,14.19-5.42,22.51-5.42s15.82,1.81,22.51,5.42c6.69,3.62,11.94,8.61,15.75,14.99,3.81,6.38,5.72,13.57,5.72,21.58s-1.91,15.2-5.72,21.58c-3.81,6.38-9.06,11.37-15.75,14.99-6.69,3.62-14.19,5.43-22.51,5.43s-15.83-1.81-22.51-5.43ZM1665.5,1479.1c4.36-2.45,7.78-5.87,10.27-10.26,2.49-4.39,3.73-9.31,3.73-14.76s-1.24-10.36-3.73-14.76c-2.49-4.39-5.91-7.82-10.27-10.27-4.36-2.45-9.25-3.67-14.7-3.67s-10.34,1.23-14.7,3.67c-4.36,2.45-7.78,5.87-10.27,10.27-2.49,4.39-3.73,9.31-3.73,14.76s1.24,10.36,3.73,14.76c2.49,4.39,5.91,7.82,10.27,10.26,4.35,2.45,9.25,3.67,14.7,3.67s10.34-1.22,14.7-3.67Z"></path><path class="cls-1" d="M1781.1,1413.25v81.66h-12.48l-45.03-55.29v55.29h-15.05v-81.66h12.48l45.03,55.29v-55.29h15.05Z"></path><path class="cls-1" d="M1817.26,1426.09h-27.06v-12.83h69.29v12.83h-27.06v68.82h-15.17v-68.82Z"></path><path class="cls-1" d="M1922.01,1494.91l-16.68-23.91c-.7.08-1.75.12-3.15.12h-18.43v23.8h-15.16v-81.66h33.59c7.08,0,13.24,1.17,18.49,3.5,5.25,2.33,9.27,5.68,12.08,10.03,2.8,4.36,4.2,9.53,4.2,15.51s-1.5,11.43-4.49,15.86-7.29,7.74-12.89,9.91l18.78,26.83h-16.33ZM1916.53,1430.29c-3.42-2.8-8.44-4.2-15.05-4.2h-17.73v32.55h17.73c6.61,0,11.63-1.42,15.05-4.26,3.42-2.84,5.13-6.86,5.13-12.07s-1.71-9.22-5.13-12.02Z"></path><path class="cls-1" d="M1967.16,1490.65c-6.69-3.61-11.94-8.63-15.75-15.05-3.81-6.42-5.72-13.59-5.72-21.52s1.91-15.11,5.72-21.52c3.81-6.42,9.06-11.43,15.75-15.05,6.69-3.62,14.19-5.42,22.51-5.42s15.82,1.81,22.51,5.42c6.69,3.62,11.94,8.61,15.75,14.99,3.81,6.38,5.72,13.57,5.72,21.58s-1.91,15.2-5.72,21.58c-3.81,6.38-9.06,11.37-15.75,14.99-6.69,3.62-14.19,5.43-22.51,5.43s-15.83-1.81-22.51-5.43ZM2004.37,1479.1c4.36-2.45,7.78-5.87,10.27-10.26,2.49-4.39,3.73-9.31,3.73-14.76s-1.24-10.36-3.73-14.76c-2.49-4.39-5.91-7.82-10.27-10.27-4.36-2.45-9.25-3.67-14.7-3.67s-10.34,1.23-14.7,3.67c-4.36,2.45-7.78,5.87-10.27,10.27-2.49,4.39-3.73,9.31-3.73,14.76s1.24,10.36,3.73,14.76,5.91,7.82,10.27,10.26c4.35,2.45,9.25,3.67,14.7,3.67s10.34-1.22,14.7-3.67Z"></path><path class="cls-1" d="M2047.41,1413.25h15.16v68.82h42.69v12.83h-57.86v-81.66Z"></path><path class="cls-1" d="M2144.82,1413.25h35.69c8.71,0,16.45,1.69,23.21,5.08,6.77,3.38,12.02,8.16,15.75,14.35,3.73,6.18,5.6,13.32,5.6,21.41s-1.87,15.22-5.6,21.41c-3.73,6.18-8.98,10.96-15.75,14.35-6.76,3.38-14.5,5.08-23.21,5.08h-35.69v-81.66ZM2179.81,1482.08c5.99,0,11.26-1.15,15.81-3.44,4.55-2.29,8.05-5.56,10.5-9.8,2.45-4.24,3.67-9.16,3.67-14.76s-1.23-10.52-3.67-14.76c-2.45-4.24-5.95-7.5-10.5-9.8-4.55-2.29-9.82-3.44-15.81-3.44h-19.83v55.99h19.83Z"></path><path class="cls-1" d="M2300.08,1482.2v12.71h-61.24v-81.66h59.61v12.71h-44.45v21.23h39.43v12.48h-39.43v22.51h46.08Z"></path><path class="cls-1" d="M2396.6,1416.75c5.25,2.33,9.27,5.68,12.08,10.03,2.8,4.36,4.2,9.53,4.2,15.51s-1.4,11.06-4.2,15.46c-2.8,4.39-6.83,7.76-12.08,10.09-5.25,2.33-11.41,3.5-18.49,3.5h-18.43v23.56h-15.16v-81.66h33.59c7.08,0,13.24,1.17,18.49,3.5ZM2392.46,1454.32c3.42-2.8,5.13-6.8,5.13-12.01s-1.71-9.22-5.13-12.02c-3.42-2.8-8.44-4.2-15.05-4.2h-17.73v32.43h17.73c6.61,0,11.63-1.4,15.05-4.2Z"></path><path class="cls-1" d="M2425.71,1413.25h15.16v68.82h42.69v12.83h-57.86v-81.66Z"></path><path class="cls-1" d="M2546.79,1476.01h-40.83l-8.05,18.9h-15.63l36.74-81.66h14.93l36.86,81.66h-15.87l-8.16-18.9ZM2541.78,1464.11l-15.4-35.7-15.28,35.7h30.68Z"></path><path class="cls-1" d="M2633.46,1453.15h14.35v32.55c-4.2,3.34-9.1,5.91-14.7,7.7-5.6,1.79-11.36,2.68-17.26,2.68-8.32,0-15.83-1.81-22.51-5.43-6.69-3.61-11.94-8.61-15.75-14.99-3.81-6.38-5.72-13.57-5.72-21.58s1.91-15.2,5.72-21.58c3.81-6.38,9.08-11.37,15.81-14.99,6.72-3.62,14.29-5.42,22.69-5.42,6.84,0,13.06,1.13,18.66,3.38,5.6,2.26,10.3,5.56,14.12,9.91l-9.57,9.33c-6.22-6.22-13.73-9.33-22.51-9.33-5.76,0-10.87,1.21-15.34,3.62-4.47,2.41-7.97,5.79-10.5,10.15-2.53,4.36-3.79,9.33-3.79,14.93s1.26,10.34,3.79,14.7c2.53,4.36,6.03,7.78,10.5,10.26,4.47,2.49,9.55,3.73,15.22,3.73,6.38,0,11.98-1.4,16.8-4.2v-25.43Z"></path><path class="cls-1" d="M2718.39,1476.01h-40.83l-8.05,18.9h-15.63l36.74-81.66h14.93l36.86,81.66h-15.87l-8.16-18.9ZM2713.37,1464.11l-15.4-35.7-15.28,35.7h30.68Z"></path><path class="cls-1" d="M2757.52,1493.39c-5.87-1.79-10.52-4.16-13.94-7.11l5.25-11.78c3.34,2.64,7.45,4.8,12.31,6.48,4.86,1.67,9.74,2.51,14.64,2.51,6.07,0,10.6-.97,13.59-2.92,2.99-1.94,4.49-4.51,4.49-7.7,0-2.33-.84-4.26-2.51-5.77-1.67-1.52-3.79-2.7-6.36-3.56-2.56-.85-6.07-1.83-10.5-2.92-6.22-1.48-11.26-2.95-15.11-4.43-3.85-1.48-7.16-3.79-9.92-6.94-2.76-3.15-4.14-7.41-4.14-12.77,0-4.51,1.22-8.61,3.67-12.31,2.45-3.69,6.14-6.63,11.08-8.81,4.94-2.18,10.98-3.27,18.14-3.27,4.98,0,9.87.62,14.7,1.87,4.82,1.25,8.98,3.03,12.48,5.37l-4.78,11.78c-3.58-2.1-7.31-3.69-11.2-4.78-3.89-1.09-7.66-1.63-11.31-1.63-5.99,0-10.44,1.01-13.36,3.03-2.92,2.02-4.38,4.71-4.38,8.05,0,2.33.84,4.24,2.51,5.72,1.67,1.48,3.79,2.64,6.36,3.5,2.57.86,6.07,1.83,10.5,2.92,6.07,1.4,11.04,2.86,14.93,4.37,3.89,1.52,7.21,3.83,9.97,6.94,2.76,3.11,4.14,7.31,4.14,12.6,0,4.51-1.22,8.59-3.67,12.25-2.45,3.66-6.16,6.57-11.14,8.75-4.98,2.18-11.04,3.27-18.2,3.27-6.3,0-12.38-.9-18.26-2.68Z"></path></g></g></g></svg>